<svg width="40" height="40" viewBox="0 0 40 40" fill="none" xmlns="http://www.w3.org/2000/svg">
<path d="M30.4766 29.833C29.8523 29.8964 29.3006 30.2072 28.9219 30.666C28.8273 30.7806 28.7434 30.9046 28.6719 31.0361C28.5646 31.2335 28.4849 31.4482 28.4385 31.6748C28.4075 31.8259 28.3916 31.9824 28.3916 32.1426C28.3916 32.3026 28.4076 32.4594 28.4385 32.6104C28.5468 33.1392 28.8349 33.6032 29.2363 33.9346C29.3512 34.0294 29.4757 34.113 29.6074 34.1846C29.8048 34.2918 30.0194 34.3716 30.2461 34.418C30.3216 34.4334 30.3986 34.4452 30.4766 34.4531C30.5544 34.461 30.6339 34.4648 30.7139 34.4648C30.794 34.4648 30.8732 34.4611 30.9512 34.4531C31.0292 34.4452 31.1061 34.4335 31.1816 34.418C31.4083 34.3715 31.6229 34.2919 31.8203 34.1846C31.9518 34.1131 32.0758 34.0292 32.1904 33.9346C32.7065 33.5085 33.0352 32.8634 33.0352 32.1426C33.035 30.9414 32.1211 29.9522 30.9512 29.833L30.7139 29.8213L30.4766 29.833ZM10.8691 16.0762C10.8023 16.0796 10.7359 16.0841 10.6699 16.0908C10.604 16.0975 10.5386 16.1063 10.4736 16.1162C10.2138 16.156 9.96227 16.2213 9.72168 16.3096C9.66146 16.3317 9.60178 16.355 9.54297 16.3799C9.42563 16.4296 9.31141 16.4854 9.2002 16.5459C9.14441 16.5762 9.08928 16.6077 9.03516 16.6406C8.44105 17.0021 7.94941 17.5166 7.61621 18.1289C7.58585 18.1847 7.55699 18.2415 7.5293 18.2988C7.30838 18.7566 7.17374 19.2634 7.14648 19.7979C7.14307 19.8648 7.1416 19.9322 7.1416 20C7.1416 20.0678 7.14307 20.1352 7.14648 20.2021C7.17374 20.7366 7.30838 21.2434 7.5293 21.7012C7.55699 21.7585 7.58585 21.8153 7.61621 21.8711C7.94941 22.4834 8.44105 22.9979 9.03516 23.3594C9.08928 23.3923 9.14441 23.4238 9.2002 23.4541C9.31141 23.5146 9.42563 23.5704 9.54297 23.6201C9.60178 23.645 9.66146 23.6683 9.72168 23.6904C9.96227 23.7787 10.2138 23.844 10.4736 23.8838C10.6682 23.9136 10.8675 23.9287 11.0703 23.9287L11.2725 23.9238C11.3393 23.9204 11.4058 23.9159 11.4717 23.9092C11.5376 23.9025 11.603 23.8937 11.668 23.8838C11.9278 23.8439 12.1793 23.7787 12.4199 23.6904C12.5403 23.6463 12.6579 23.5963 12.7725 23.541C13.8027 23.0435 14.5847 22.1091 14.876 20.9805C14.8921 20.9179 14.9068 20.8547 14.9199 20.791C14.9724 20.5354 15 20.2708 15 20C15 19.7292 14.9724 19.4646 14.9199 19.209C14.9068 19.1453 14.8921 19.0821 14.876 19.0195C14.5847 17.8909 13.8027 16.9565 12.7725 16.459C12.6579 16.4037 12.5403 16.3537 12.4199 16.3096C12.1793 16.2213 11.9278 16.1561 11.668 16.1162C11.603 16.1063 11.5376 16.0975 11.4717 16.0908C11.4058 16.0841 11.3393 16.0796 11.2725 16.0762L11.0703 16.0713L10.8691 16.0762ZM18.0967 21.2861L27.3467 27.9785L27.3457 27.9795L27.3477 27.9785C28.2672 27.2331 29.4417 26.7861 30.7139 26.7861L30.9893 26.793C31.6275 26.8254 32.2364 26.9707 32.7969 27.208C32.9572 27.2759 33.1137 27.351 33.2656 27.4336C33.8727 27.7637 34.4089 28.2081 34.8457 28.7373C34.9549 28.8696 35.058 29.007 35.1543 29.1494C35.2988 29.3632 35.4281 29.5881 35.541 29.8223C35.5787 29.9004 35.6145 29.9794 35.6484 30.0596C35.8857 30.62 36.031 31.2289 36.0635 31.8672C36.0681 31.9584 36.0703 32.0502 36.0703 32.1426L36.0635 32.418C35.9338 34.9719 34.0091 37.0577 31.5283 37.4375C31.3513 37.4646 31.1715 37.4829 30.9893 37.4922C30.898 37.4968 30.8062 37.499 30.7139 37.499C30.6216 37.499 30.5296 37.4968 30.4385 37.4922C30.347 37.4875 30.2562 37.4809 30.166 37.4717C27.7374 37.2244 25.7852 35.3499 25.4189 32.958C25.3918 32.7807 25.3735 32.6005 25.3643 32.418C25.3596 32.3268 25.3564 32.2348 25.3564 32.1426C25.3565 31.7575 25.3971 31.38 25.4756 31.0156C25.5017 30.8944 25.5319 30.7744 25.5664 30.6562L16.7803 24.2939C16.6172 24.51 16.4419 24.717 16.2559 24.9131C16.07 25.1089 15.8729 25.2939 15.666 25.4678C15.459 25.6418 15.2426 25.8051 15.0166 25.9551C14.9037 26.03 14.7882 26.1013 14.6709 26.1699C13.7314 26.7191 12.655 27.0599 11.5049 27.1289C11.3612 27.1375 11.2162 27.1426 11.0703 27.1426C10.9471 27.1426 10.8248 27.139 10.7031 27.1328C10.0942 27.102 9.50551 26.9951 8.94629 26.8213C8.72258 26.7517 8.50371 26.6714 8.29004 26.5811C7.8626 26.4003 7.45625 26.1796 7.07617 25.9229C6.88618 25.7945 6.70273 25.6573 6.52637 25.5117C4.93934 24.202 3.92871 22.2195 3.92871 20C3.92871 17.7805 4.93934 15.798 6.52637 14.4883C6.70273 14.3427 6.88618 14.2055 7.07617 14.0771C7.45625 13.8204 7.8626 13.5997 8.29004 13.4189C8.50371 13.3286 8.72258 13.2483 8.94629 13.1787C9.50551 13.0049 10.0942 12.898 10.7031 12.8672C10.8248 12.861 10.9471 12.8574 11.0703 12.8574C12.3837 12.8574 13.614 13.2123 14.6709 13.8301C14.7882 13.8987 14.9037 13.97 15.0166 14.0449C15.2426 14.1949 15.459 14.3582 15.666 14.5322C15.8729 14.7061 16.07 14.8911 16.2559 15.0869C16.4417 15.2828 16.6164 15.4893 16.7793 15.7051L16.7803 15.7061L25.5664 9.34375C25.5318 9.2254 25.5018 9.10552 25.4756 8.98438C25.4233 8.74222 25.3878 8.49452 25.3701 8.24121L25.3564 7.85742C25.3564 7.58029 25.3782 7.30787 25.4189 7.04199C25.7852 4.65014 27.7374 2.77564 30.166 2.52832C30.346 2.50999 30.5291 2.50098 30.7139 2.50098C30.9908 2.501 31.2627 2.52183 31.5283 2.5625C33.9203 2.92866 35.7946 4.8809 36.042 7.30957C36.0603 7.48966 36.0703 7.67255 36.0703 7.85742L36.0635 8.13281C36.031 8.77108 35.8857 9.37997 35.6484 9.94043C35.6145 10.0206 35.5787 10.0996 35.541 10.1777C35.4281 10.4119 35.2988 10.6368 35.1543 10.8506C35.058 10.993 34.9549 11.1304 34.8457 11.2627C34.4089 11.7919 33.8727 12.2363 33.2656 12.5664C33.1137 12.649 32.9572 12.7241 32.7969 12.792C32.4765 12.9276 32.1404 13.0331 31.792 13.1045C31.4436 13.1759 31.0831 13.2138 30.7139 13.2139C30.3959 13.2139 30.0836 13.1863 29.7803 13.1328C29.7324 13.1244 29.6851 13.1142 29.6377 13.1045C28.7833 12.9297 28.0011 12.5512 27.3477 12.0215H27.3467L18.0967 18.7129V18.7148C18.1354 18.9273 18.1642 19.141 18.1836 19.3555C18.2223 19.7843 18.2223 20.2157 18.1836 20.6445C18.1642 20.859 18.1354 21.0727 18.0967 21.2852L18.0977 21.2861H18.0967ZM30.7139 5.53516C30.5539 5.53516 30.397 5.55114 30.2461 5.58203C30.0194 5.62842 29.8048 5.70818 29.6074 5.81543C29.4757 5.88702 29.3512 5.97063 29.2363 6.06543C28.8349 6.39683 28.5468 6.86077 28.4385 7.38965C28.4076 7.54063 28.3916 7.69736 28.3916 7.85742C28.3916 8.01758 28.4075 8.17413 28.4385 8.3252C28.4849 8.55183 28.5646 8.76649 28.6719 8.96387C28.7434 9.09538 28.8273 9.21936 28.9219 9.33398C29.2053 9.67727 29.5856 9.93722 30.0205 10.0732C30.0215 10.0735 30.0225 10.0739 30.0234 10.0742C30.1689 10.1195 30.3204 10.1511 30.4766 10.167L30.7139 10.1787L30.9512 10.167C32.0431 10.0557 32.9123 9.18669 33.0234 8.09473L33.0352 7.85742L33.0234 7.62012C32.96 6.99591 32.6492 6.44417 32.1904 6.06543C32.0758 5.97082 31.9518 5.88692 31.8203 5.81543C31.6229 5.70813 31.4083 5.62849 31.1816 5.58203C31.0306 5.55106 30.874 5.53518 30.7139 5.53516Z" fill="white" stroke="white" stroke-width="0.00111607"/>
</svg>
