<svg width="40" height="40" viewBox="0 0 40 40" fill="none" xmlns="http://www.w3.org/2000/svg">
<path d="M15.0002 36.6666H25.0002C30.0002 36.6666 31.6668 34.9999 31.6668 29.9999V9.99992C31.6668 4.99992 30.0002 3.33325 25.0002 3.33325H15.0002C10.0002 3.33325 8.3335 4.99992 8.3335 9.99992V29.9999C8.3335 34.9999 10.0002 36.6666 15.0002 36.6666Z" stroke="white" stroke-width="1.5" stroke-miterlimit="10" stroke-linecap="round" stroke-linejoin="round"/>
<path d="M20.0002 29.9999C22.7616 29.9999 25.0002 27.7613 25.0002 24.9999C25.0002 22.2385 22.7616 19.9999 20.0002 19.9999C17.2387 19.9999 15.0002 22.2385 15.0002 24.9999C15.0002 27.7613 17.2387 29.9999 20.0002 29.9999Z" stroke="white" stroke-width="1.5" stroke-miterlimit="10" stroke-linecap="round" stroke-linejoin="round"/>
<path d="M20.0002 14.9999C21.3809 14.9999 22.5002 13.8806 22.5002 12.4999C22.5002 11.1192 21.3809 9.99992 20.0002 9.99992C18.6195 9.99992 17.5002 11.1192 17.5002 12.4999C17.5002 13.8806 18.6195 14.9999 20.0002 14.9999Z" stroke="white" stroke-width="1.5" stroke-miterlimit="10" stroke-linecap="round" stroke-linejoin="round"/>
</svg>
