<svg width="40" height="40" viewBox="0 0 40 40" fill="none" xmlns="http://www.w3.org/2000/svg">
<path d="M34.9168 11.2333C34.9168 5.61668 33.5168 4.21667 27.9002 4.21667H10.3502C4.7335 4.21667 3.3335 5.61668 3.3335 11.2333V21.2333C3.3335 26.85 4.7335 28.25 10.3502 28.25H16.6668V35.7833H11.2335M3.3335 21.5833H16.6668M28.741 30.4167H28.756M36.6668 21.3333V30.85C36.6668 34.8 35.6835 35.7833 31.7335 35.7833H25.8168C21.8668 35.7833 20.8835 34.8 20.8835 30.85V21.3333C20.8835 17.3833 21.8668 16.4 25.8168 16.4H31.7335C35.6835 16.4 36.6668 17.3833 36.6668 21.3333Z" stroke="white" stroke-width="1.5" stroke-linecap="round" stroke-linejoin="round"/>
</svg>
