<svg width="40" height="40" viewBox="0 0 40 40" fill="none" xmlns="http://www.w3.org/2000/svg">
<path d="M20.0002 34.1667H11.6668C6.66683 34.1667 3.3335 31.6667 3.3335 25.8334V14.1667C3.3335 8.33337 6.66683 5.83337 11.6668 5.83337H28.3335C33.3335 5.83337 36.6668 8.33337 36.6668 14.1667V19.1667M28.3335 15L23.1168 19.1667C21.4002 20.5334 18.5835 20.5334 16.8668 19.1667L11.6668 15M36.6668 36.6667L35.0002 35M35.6668 30.3334C35.6668 33.2789 33.279 35.6667 30.3335 35.6667C27.388 35.6667 25.0002 33.2789 25.0002 30.3334C25.0002 27.3879 27.388 25 30.3335 25C33.279 25 35.6668 27.3879 35.6668 30.3334Z" stroke="white" stroke-width="1.5" stroke-linecap="round" stroke-linejoin="round"/>
</svg>
