<svg width="40" height="40" viewBox="0 0 40 40" fill="none" xmlns="http://www.w3.org/2000/svg">
<path d="M23.3335 20.3334H22.5835V21.0834H23.3335V20.3334ZM28.1668 21L28.9007 21.1545L28.9168 21.0781V21H28.1668ZM27.5002 24.1667L26.7662 24.0122L26.7502 24.0886V24.1667H27.5002ZM23.3335 24.5V23.75H22.5835V24.5H23.3335ZM23.3335 36.6667V37.4167H24.0835V36.6667H23.3335ZM18.3335 36.6667H17.5835V37.4167H18.3335V36.6667ZM18.3335 24.6667H19.0835V23.9167H18.3335V24.6667ZM18.3335 20.5V21.25H19.0835V20.5H18.3335ZM23.3335 15.5H22.5835V20.3334H23.3335H24.0835V15.5H23.3335ZM23.3335 20.3334V21.0834H27.6668V20.3334V19.5834H23.3335V20.3334ZM27.6668 20.3334V21.0834C27.6198 21.0834 27.5619 21.0702 27.5077 21.0385C27.4568 21.0088 27.4292 20.9749 27.4178 20.9577C27.407 20.9416 27.4077 20.9366 27.4109 20.9485C27.4139 20.9597 27.4168 20.9779 27.4168 21H28.1668H28.9168C28.9168 20.7221 28.8496 20.4013 28.6659 20.1257C28.4673 19.8278 28.1244 19.5834 27.6668 19.5834V20.3334ZM28.1668 21L27.4329 20.8455L26.7662 24.0122L27.5002 24.1667L28.2341 24.3212L28.9007 21.1545L28.1668 21ZM27.5002 24.1667H26.7502C26.7502 23.9565 26.8515 23.8293 26.8787 23.7979C26.9124 23.7591 26.9349 23.7479 26.9268 23.7528C26.9224 23.7554 26.9151 23.7587 26.9114 23.7599C26.9 23.7637 26.9324 23.75 27.0002 23.75V24.5V25.25C27.2679 25.25 27.5279 25.1414 27.6985 25.039C27.7946 24.9814 27.9109 24.8973 28.0122 24.7803C28.1072 24.6708 28.2502 24.4602 28.2502 24.1667H27.5002ZM27.0002 24.5V23.75H23.3335V24.5V25.25H27.0002V24.5ZM23.3335 24.5H22.5835V36.6667H23.3335H24.0835V24.5H23.3335ZM23.3335 36.6667V35.9167H18.3335V36.6667V37.4167H23.3335V36.6667ZM18.3335 36.6667H19.0835V24.6667H18.3335H17.5835V36.6667H18.3335ZM18.3335 24.6667V23.9167H15.5002V24.6667V25.4167H18.3335V24.6667ZM15.5002 24.6667V23.9167C15.4491 23.9167 15.5486 23.9045 15.6555 24.0114C15.7624 24.1183 15.7502 24.2178 15.7502 24.1667H15.0002H14.2502C14.2502 24.449 14.3212 24.7984 14.5948 25.072C14.8684 25.3456 15.2179 25.4167 15.5002 25.4167V24.6667ZM15.0002 24.1667H15.7502V21H15.0002H14.2502V24.1667H15.0002ZM15.0002 21H15.7502C15.7502 20.949 15.7624 21.0484 15.6555 21.1554C15.5486 21.2623 15.4491 21.25 15.5002 21.25V20.5V19.75C15.2179 19.75 14.8684 19.8211 14.5948 20.0947C14.3212 20.3683 14.2502 20.7178 14.2502 21H15.0002ZM15.5002 20.5V21.25H18.3335V20.5V19.75H15.5002V20.5ZM18.3335 20.5H19.0835V15H18.3335H17.5835V20.5H18.3335ZM18.3335 15H19.0835C19.0835 12.5809 20.9144 10.75 23.3335 10.75V10V9.25004C20.0859 9.25004 17.5835 11.7525 17.5835 15H18.3335ZM23.3335 10V10.75H27.8335V10V9.25004H23.3335V10ZM27.8335 10V10.75C27.8846 10.75 27.7851 10.7623 27.6782 10.6554C27.5712 10.5484 27.5835 10.449 27.5835 10.5H28.3335H29.0835C29.0835 10.2178 29.0124 9.86831 28.7388 9.59471C28.4652 9.32112 28.1158 9.25004 27.8335 9.25004V10ZM28.3335 10.5H27.5835V14.5H28.3335H29.0835V10.5H28.3335ZM28.3335 14.5H27.5835C27.5835 14.5511 27.5712 14.4516 27.6782 14.3447C27.7851 14.2378 27.8846 14.25 27.8335 14.25V15V15.75C28.1158 15.75 28.4652 15.679 28.7388 15.4054C29.0124 15.1318 29.0835 14.7823 29.0835 14.5H28.3335ZM27.8335 15V14.25H23.8335V15V15.75H27.8335V15ZM23.8335 15V14.25C23.5512 14.25 23.2018 14.3211 22.9282 14.5947C22.6546 14.8683 22.5835 15.2178 22.5835 15.5H23.3335H24.0835C24.0835 15.449 24.0958 15.5484 23.9888 15.6554C23.8819 15.7623 23.7824 15.75 23.8335 15.75V15ZM25.0002 36.6667V35.9167H15.0002V36.6667V37.4167H25.0002V36.6667ZM15.0002 36.6667V35.9167C10.9075 35.9167 8.23769 35.0936 6.57216 33.428C4.90663 31.7625 4.0835 29.0927 4.0835 25H3.3335H2.5835C2.5835 29.2407 3.42703 32.4042 5.5115 34.4887C7.59597 36.5732 10.7595 37.4167 15.0002 37.4167V36.6667ZM3.3335 25H4.0835V15H3.3335H2.5835V25H3.3335ZM3.3335 15H4.0835C4.0835 10.9073 4.90663 8.23757 6.57216 6.57204C8.23769 4.90651 10.9075 4.08337 15.0002 4.08337V3.33337V2.58337C10.7595 2.58337 7.59597 3.42691 5.5115 5.51138C3.42703 7.59585 2.5835 10.7594 2.5835 15H3.3335ZM15.0002 3.33337V4.08337H25.0002V3.33337V2.58337H15.0002V3.33337ZM25.0002 3.33337V4.08337C29.0929 4.08337 31.7626 4.90651 33.4282 6.57204C35.0937 8.23757 35.9168 10.9073 35.9168 15H36.6668H37.4168C37.4168 10.7594 36.5733 7.59585 34.4888 5.51138C32.4044 3.42691 29.2408 2.58337 25.0002 2.58337V3.33337ZM36.6668 15H35.9168V25H36.6668H37.4168V15H36.6668ZM36.6668 25H35.9168C35.9168 29.0927 35.0937 31.7625 33.4282 33.428C31.7626 35.0936 29.0929 35.9167 25.0002 35.9167V36.6667V37.4167C29.2408 37.4167 32.4044 36.5732 34.4888 34.4887C36.5733 32.4042 37.4168 29.2407 37.4168 25H36.6668Z" fill="white"/>
</svg>
