<svg width="22" height="22" viewBox="0 0 22 22" fill="none" xmlns="http://www.w3.org/2000/svg">
<path d="M8.75 8C8.33579 8 8 8.33579 8 8.75C8 9.16421 8.33579 9.5 8.75 9.5V8.75V8ZM10.75 9.5C11.1642 9.5 11.5 9.16421 11.5 8.75C11.5 8.33579 11.1642 8 10.75 8V8.75V9.5ZM8.75 12C8.33579 12 8 12.3358 8 12.75C8 13.1642 8.33579 13.5 8.75 13.5V12.75V12ZM12.75 13.5C13.1642 13.5 13.5 13.1642 13.5 12.75C13.5 12.3358 13.1642 12 12.75 12V12.75V13.5ZM4.75 7.75H4V13.75H4.75H5.5V7.75H4.75ZM4.75 13.75H4C4 14.8656 4.27941 15.8401 4.96967 16.5303C5.65993 17.2206 6.63439 17.5 7.75 17.5V16.75V16C6.86561 16 6.34007 15.7794 6.03033 15.4697C5.72059 15.1599 5.5 14.6344 5.5 13.75H4.75ZM7.75 16.75V17.5H13.75V16.75V16H7.75V16.75ZM13.75 16.75V17.5C14.8656 17.5 15.8401 17.2206 16.5303 16.5303C17.2206 15.8401 17.5 14.8656 17.5 13.75H16.75H16C16 14.6344 15.7794 15.1599 15.4697 15.4697C15.1599 15.7794 14.6344 16 13.75 16V16.75ZM16.75 13.75H17.5V10.75H16.75H16V13.75H16.75ZM16.75 10.75H17.5C17.5 10.2796 17.3399 9.82925 17.0053 9.49467C16.6707 9.16009 16.2204 9 15.75 9V9.75V10.5C15.8796 10.5 15.9293 10.5399 15.9447 10.5553C15.9601 10.5707 16 10.6204 16 10.75H16.75ZM15.75 9.75V9C15.6204 9 15.5707 8.96009 15.5553 8.94467C15.5399 8.92925 15.5 8.87956 15.5 8.75H14.75H14C14 9.22044 14.1601 9.67075 14.4947 10.0053C14.8293 10.3399 15.2796 10.5 15.75 10.5V9.75ZM14.75 8.75H15.5V7.75H14.75H14V8.75H14.75ZM14.75 7.75H15.5C15.5 6.63439 15.2206 5.65993 14.5303 4.96967C13.8401 4.27941 12.8656 4 11.75 4V4.75V5.5C12.6344 5.5 13.1599 5.72059 13.4697 6.03033C13.7794 6.34007 14 6.86561 14 7.75H14.75ZM11.75 4.75V4H7.75V4.75V5.5H11.75V4.75ZM7.75 4.75V4C6.63439 4 5.65993 4.27941 4.96967 4.96967C4.27941 5.65993 4 6.63439 4 7.75H4.75H5.5C5.5 6.86561 5.72059 6.34007 6.03033 6.03033C6.34007 5.72059 6.86561 5.5 7.75 5.5V4.75ZM8.75 8.75V9.5H10.75V8.75V8H8.75V8.75ZM8.75 12.75V13.5H12.75V12.75V12H8.75V12.75ZM13.75 20.75V20H7.75V20.75V21.5H13.75V20.75ZM7.75 20.75V20C5.32397 20 3.82086 19.5102 2.90533 18.5947C1.9898 17.6791 1.5 16.176 1.5 13.75H0.75H0C0 16.324 0.510201 18.3209 1.84467 19.6553C3.17914 20.9898 5.17603 21.5 7.75 21.5V20.75ZM0.75 13.75H1.5V7.75H0.75H0V13.75H0.75ZM0.75 7.75H1.5C1.5 5.32397 1.9898 3.82086 2.90533 2.90533C3.82086 1.9898 5.32397 1.5 7.75 1.5V0.75V0C5.17603 0 3.17914 0.510201 1.84467 1.84467C0.510201 3.17914 0 5.17603 0 7.75H0.75ZM7.75 0.75V1.5H13.75V0.75V0H7.75V0.75ZM13.75 0.75V1.5C16.176 1.5 17.6791 1.9898 18.5947 2.90533C19.5102 3.82086 20 5.32397 20 7.75H20.75H21.5C21.5 5.17603 20.9898 3.17914 19.6553 1.84467C18.3209 0.510201 16.324 0 13.75 0V0.75ZM20.75 7.75H20V13.75H20.75H21.5V7.75H20.75ZM20.75 13.75H20C20 16.176 19.5102 17.6791 18.5947 18.5947C17.6791 19.5102 16.176 20 13.75 20V20.75V21.5C16.324 21.5 18.3209 20.9898 19.6553 19.6553C20.9898 18.3209 21.5 16.324 21.5 13.75H20.75Z" fill="#4285F4"/>
</svg>
