<svg width="72" height="72" viewBox="0 0 72 72" fill="none" xmlns="http://www.w3.org/2000/svg">
<circle cx="36" cy="36" r="36" fill="white"/>
<path d="M28.5007 29.9H40.834C42.3173 29.9 43.5007 31.0999 43.5007 32.5666V35.5166M28.5007 29.9L31.3173 27.0999M28.5007 29.9L31.3173 32.7166M43.5007 42.0999H31.1673C29.684 42.0999 28.5007 40.8999 28.5007 39.4332V36.4832M43.5007 42.0999L40.684 44.9M43.5007 42.0999L40.684 39.2832M52.6673 35.9999C52.6673 45.2047 45.2054 52.6666 36.0007 52.6666C26.7959 52.6666 19.334 45.2047 19.334 35.9999C19.334 26.7952 26.7959 19.3333 36.0007 19.3333C45.2054 19.3333 52.6673 26.7952 52.6673 35.9999Z" stroke="#4285F4" stroke-width="1.5" stroke-miterlimit="10" stroke-linecap="round" stroke-linejoin="round"/>
</svg>
