<svg width="48" height="48" viewBox="0 0 48 48" fill="none" xmlns="http://www.w3.org/2000/svg">
<path d="M27.0679 4.69774C28.0905 -1.56591 19.9734 -1.56591 20.9321 4.69774C19.9095 -1.56591 12.2397 0.926765 15.1159 6.61518C12.2397 0.926765 5.65646 5.72038 10.1944 10.1944C5.72038 5.72038 0.926765 12.2397 6.61518 15.1158C0.926765 12.2397 -1.56591 19.9095 4.69774 20.9321C-1.56591 19.9095 -1.56591 28.0266 4.69774 27.0679C-1.56591 28.0905 0.926765 35.7603 6.61518 32.8842C0.926765 35.7603 5.72038 42.3435 10.1944 37.8056C5.72038 42.2796 12.2397 47.0732 15.1159 41.3848C12.2397 47.0732 19.9095 49.5659 20.9321 43.3023C19.9095 49.5659 28.0266 49.5659 27.0679 43.3023C28.0905 49.5659 35.7603 47.0732 32.8842 41.3848C35.7603 47.0732 42.3436 42.2796 37.8056 37.8056C42.2796 42.2796 47.0732 35.7603 41.3848 32.8842C47.0732 35.7603 49.5659 28.0905 43.3023 27.0679C49.5659 28.0905 49.5659 19.9734 43.3023 20.9321C49.5659 19.9095 47.0732 12.2397 41.3848 15.1158C47.0732 12.2397 42.2796 5.65646 37.8056 10.1944C42.2796 5.72038 35.7603 0.926765 32.8842 6.61518C35.7603 0.926765 28.0905 -1.56591 27.0679 4.69774Z" fill="#015FC9"/>
<circle cx="24" cy="24" r="15" fill="#4285F4"/>
<path d="M25.2443 30.6591C24.3958 30.6591 23.6402 30.5133 22.9773 30.2216C22.3182 29.9261 21.7973 29.5208 21.4148 29.0057C21.036 28.4867 20.8409 27.8883 20.8295 27.2102H23.3068C23.322 27.4943 23.4148 27.7443 23.5852 27.9602C23.7595 28.1723 23.9905 28.3371 24.2784 28.4545C24.5663 28.572 24.8902 28.6307 25.25 28.6307C25.625 28.6307 25.9564 28.5644 26.2443 28.4318C26.5322 28.2992 26.7576 28.1155 26.9205 27.8807C27.0833 27.6458 27.1648 27.375 27.1648 27.0682C27.1648 26.7576 27.0777 26.483 26.9034 26.2443C26.733 26.0019 26.4867 25.8125 26.1648 25.6761C25.8466 25.5398 25.4678 25.4716 25.0284 25.4716H23.9432V23.6648H25.0284C25.3996 23.6648 25.7273 23.6004 26.0114 23.4716C26.2992 23.3428 26.5227 23.1648 26.6818 22.9375C26.8409 22.7064 26.9205 22.4375 26.9205 22.1307C26.9205 21.839 26.8504 21.5833 26.7102 21.3636C26.5739 21.1402 26.3807 20.9659 26.1307 20.8409C25.8845 20.7159 25.5966 20.6534 25.267 20.6534C24.9337 20.6534 24.6288 20.714 24.3523 20.8352C24.0758 20.9527 23.8542 21.1212 23.6875 21.3409C23.5208 21.5606 23.4318 21.8182 23.4205 22.1136H21.0625C21.0739 21.4432 21.2652 20.8523 21.6364 20.3409C22.0076 19.8295 22.5076 19.4299 23.1364 19.142C23.7689 18.8504 24.483 18.7045 25.2784 18.7045C26.0814 18.7045 26.7841 18.8504 27.3864 19.142C27.9886 19.4337 28.4564 19.8277 28.7898 20.3239C29.1269 20.8163 29.2936 21.3693 29.2898 21.983C29.2936 22.6345 29.0909 23.178 28.6818 23.6136C28.2765 24.0492 27.7481 24.3258 27.0966 24.4432V24.5341C27.9527 24.6439 28.6042 24.9413 29.0511 25.4261C29.5019 25.9072 29.7254 26.5095 29.7216 27.233C29.7254 27.8958 29.5341 28.4848 29.1477 29C28.7652 29.5152 28.2367 29.9205 27.5625 30.2159C26.8883 30.5114 26.1155 30.6591 25.2443 30.6591Z" fill="white"/>
</svg>
