<svg width="36" height="36" viewBox="0 0 36 36" fill="none" xmlns="http://www.w3.org/2000/svg">
<path d="M18.0029 4.69824C19.9505 4.69824 21.8476 4.6806 23.7617 4.78809L23.7676 4.78906C25.9236 4.8935 27.7022 5.37409 29.166 6.83789C30.6262 8.29819 31.1104 10.0799 31.2148 12.2354V12.2412C31.3223 14.1518 31.3047 16.0489 31.3047 18C31.3047 19.9529 31.3257 21.8482 31.2148 23.7578V23.7646C31.1104 25.9207 30.6298 27.6993 29.166 29.1631C27.7056 30.6235 25.9233 31.1075 23.7676 31.2119H23.7617C21.8511 31.3194 19.9541 31.3018 18.0029 31.3018C16.0553 31.3018 14.1583 31.3194 12.2441 31.2119H12.2383C10.0825 31.1074 8.30448 30.6266 6.84082 29.1631C5.38038 27.7026 4.89641 25.9204 4.79199 23.7646L4.79102 23.7588C4.68353 21.8482 4.70117 19.9477 4.70117 18C4.70117 16.0524 4.68352 14.1554 4.79102 12.2412L4.79199 12.2354C4.89647 10.0795 5.37712 8.30159 6.84082 6.83789C8.30116 5.37755 10.0828 4.89352 12.2383 4.78906L12.2441 4.78809C14.1547 4.68059 16.0518 4.69824 18.0029 4.69824ZM18 10.04C13.5956 10.04 10.0392 13.5957 10.0391 18C10.0391 22.4044 13.5956 25.9609 18 25.9609C22.4043 25.9608 25.96 22.4043 25.96 18C25.9598 13.5958 22.4042 10.0402 18 10.04ZM18 14.0635C20.166 14.0637 21.9354 15.834 21.9355 18C21.9355 20.1661 20.1661 21.9363 18 21.9365C15.8337 21.9365 14.0635 20.1663 14.0635 18C14.0636 15.8339 15.8338 14.0635 18 14.0635ZM25.5059 8.06055C24.1601 8.06055 23.0714 9.14841 23.0713 10.4941C23.0713 11.84 24.16 12.9287 25.5059 12.9287V12.9277C25.8252 12.928 26.1414 12.8661 26.4365 12.7441C26.7321 12.6219 27.0014 12.442 27.2275 12.2158C27.4536 11.9897 27.6327 11.7212 27.7549 11.4258C27.8771 11.1302 27.9399 10.813 27.9395 10.4932C27.9388 9.14799 26.8512 8.06072 25.5059 8.06055Z" stroke="#4285F4" stroke-width="1.5"/>
</svg>
