<svg width="120" height="120" viewBox="0 0 120 120" fill="none" xmlns="http://www.w3.org/2000/svg">
<path d="M115.848 19.9916C115.848 14.7149 111.536 10.4216 106.236 10.4216H100.595V7.33308C100.595 3.44313 97.4261 0.276855 93.532 0.276855H22.3219C18.4278 0.276855 15.259 3.44181 15.259 7.33308V10.4216H9.60454C4.31135 10.4216 0.00585938 14.7149 0.00585938 19.9916V85.8624C0.00585938 91.147 4.31267 95.4456 9.60454 95.4456H40.6925C40.6793 101.356 38.5048 107.13 34.1663 111.755H17.2371C14.6195 111.755 14.6195 115.71 17.2371 115.71H98.6169C101.234 115.71 101.234 111.755 98.6169 111.755H81.6863C79.6384 109.574 78.0164 107.035 76.9074 104.283C101.762 115.743 127.609 89.7115 115.848 65.0049V19.9916ZM107.431 95.3626C92.1685 110.916 66.0665 101.294 63.8564 80.247C62.2806 65.2316 74.1434 52.1262 89.216 52.1262C111.553 52.1262 123.32 79.174 107.431 95.3626ZM39.2841 111.754C42.8604 106.844 44.6393 101.248 44.6511 95.4443H65.8423C67.5619 97.6799 69.5927 99.6612 71.874 101.325C72.7034 105.076 74.3136 108.633 76.5751 111.754H39.2841ZM3.96058 19.9916C3.96058 16.8952 6.49245 14.3761 9.60322 14.3761H15.2577V76.2924H3.96058V19.9916ZM19.2138 7.33308C19.2138 5.6234 20.6076 4.2314 22.3206 4.2314H93.5294C95.2437 4.2314 96.6362 5.62208 96.6362 7.33308V49.1181C78.383 44.3753 60.5887 57.768 59.787 76.2924H19.2138V7.33308ZM3.96058 80.247H59.8832C60.2485 84.2833 61.4314 88.0875 63.2696 91.4898H9.60322C6.49245 91.4898 3.96058 88.9655 3.96058 85.8611V80.247ZM111.892 58.82C108.876 55.1963 105.007 52.3042 100.595 50.4535V14.3761H106.236C109.355 14.3761 111.892 16.8952 111.892 19.9916V58.82ZM54.4278 44.2778C57.0454 44.2778 57.0454 48.2323 54.4278 48.2323H29.7975C27.1799 48.2323 27.1799 44.2778 29.7975 44.2778H54.4278ZM29.4744 55.4507H54.7509C57.3685 55.4507 57.3685 59.4052 54.7509 59.4052H29.4744C26.8568 59.4052 26.8568 55.4507 29.4744 55.4507ZM27.5505 32.8584V18.2318C27.5505 15.6165 31.5065 15.6165 31.5065 18.2318V30.8811H78.0968C80.7144 30.8811 80.7144 34.8356 78.0968 34.8356H29.5285C28.4366 34.8356 27.5505 33.9511 27.5505 32.8584ZM39.1984 22.2272L47.2397 20.4609L57.6032 12.184C58.4498 11.5091 59.6828 11.6396 60.3672 12.474L65.0221 18.1435L74.5021 14.4908C76.9456 13.5562 78.3645 17.2405 75.9237 18.1817L65.1105 22.3472C64.314 22.6517 63.412 22.4157 62.8714 21.7566L58.5474 16.4905C48.5755 24.4549 49.1861 24.0806 48.5386 24.2229C39.4423 26.2213 39.9487 26.1356 39.6217 26.1356C37.2692 26.1356 36.8999 22.7321 39.1984 22.2272ZM91.194 72.7044V67.4264C91.194 64.8098 87.238 64.8098 87.238 67.4264V72.7044C84.921 73.6455 83.3742 76.2727 84.1588 79.0198L77.0168 86.0088C75.747 87.2531 76.6423 89.3991 78.4015 89.3991C79.5434 89.3991 79.31 89.3016 86.6208 82.1452C89.1355 83.5701 92.2595 82.7265 93.7404 80.2457C95.4652 77.351 94.0384 73.8564 91.194 72.7044ZM89.216 78.8853C87.5478 78.8853 87.4292 76.2687 89.216 76.2687C91.0661 76.2687 90.8393 78.8853 89.216 78.8853ZM87.238 59.9971V56.3708C87.238 53.7555 91.194 53.7555 91.194 56.3708V59.9971C91.194 62.6137 87.238 62.6137 87.238 59.9971ZM91.194 98.7833C91.194 101.4 87.238 101.4 87.238 98.7833V95.4456C87.238 93.3787 89.0366 92.7486 90.2314 93.4684C91.463 94.2105 91.194 95.3481 91.194 98.7833ZM111.892 78.938C111.151 79.7145 110.769 79.5536 106.839 79.5536C105.721 79.5536 104.861 78.6243 104.861 77.5764C104.861 76.5218 105.74 75.5991 106.839 75.5991C110.629 75.5991 111.142 75.4277 111.892 76.2147C112.627 76.9832 112.62 78.1748 111.892 78.938ZM73.8929 77.5764C73.8929 78.623 73.0344 79.5536 71.9149 79.5536H68.2806C66.6322 79.5536 65.6656 77.5961 66.7878 76.2924C67.5408 75.4172 67.976 75.5991 71.9149 75.5991C73.0133 75.5991 73.8929 76.5231 73.8929 77.5764Z" fill="white"/>
</svg>
