<svg width="72" height="72" viewBox="0 0 72 72" fill="none" xmlns="http://www.w3.org/2000/svg">
<circle cx="36" cy="36" r="36" fill="white"/>
<path d="M52.6663 35.9999C52.6663 26.7999 45.1997 19.3333 35.9997 19.3333C26.7997 19.3333 19.333 26.7999 19.333 35.9999C19.333 45.1999 26.7997 52.6666 35.9997 52.6666M29.333 20.9999H30.9997C27.7497 30.7333 27.7497 41.2666 30.9997 50.9999H29.333M40.9997 20.9999C42.6163 25.8666 43.433 30.9333 43.433 35.9999M20.9997 42.6666V40.9999C25.8663 42.6166 30.933 43.4333 35.9997 43.4333M20.9997 30.9999C30.733 27.7499 41.2663 27.7499 50.9997 30.9999M52.6663 52.6666L50.9997 50.9999M51.6663 46.3333C51.6663 49.2788 49.2785 51.6666 46.333 51.6666C43.3875 51.6666 40.9997 49.2788 40.9997 46.3333C40.9997 43.3878 43.3875 40.9999 46.333 40.9999C49.2785 40.9999 51.6663 43.3878 51.6663 46.3333Z" stroke="#4285F4" stroke-width="1.5" stroke-linecap="round" stroke-linejoin="round"/>
</svg>
