<svg width="48" height="48" viewBox="0 0 48 48" fill="none" xmlns="http://www.w3.org/2000/svg">
<path d="M14 18.3201C14 16.4601 15.52 14.9399 17.38 14.9399C19.24 14.9399 20.76 16.4601 20.76 18.3201C20.76 22.0801 15.42 22.4801 14.24 26.0601C14 26.8001 14.62 27.54 15.4 27.54H20.76M32.08 27.52V16.1001C32.08 15.5801 31.74 15.1199 31.24 14.9799C30.74 14.8399 30.2 15.0399 29.92 15.4799C28.48 17.7999 26.92 20.44 25.56 22.76C25.34 23.14 25.34 23.64 25.56 24.02C25.78 24.4 26.2 24.6399 26.66 24.6399H34M36 37.72H34.48C32.88 37.72 31.36 38.34 30.24 39.46L26.82 42.8401C25.26 44.3801 22.72 44.3801 21.16 42.8401L17.74 39.46C16.62 38.34 15.08 37.72 13.5 37.72H12C8.68 37.72 6 35.06 6 31.78V9.95996C6 6.67996 8.68 4.02002 12 4.02002H36C39.32 4.02002 42 6.67996 42 9.95996V31.78C42 35.04 39.32 37.72 36 37.72Z" stroke="white" stroke-width="1.5" stroke-linecap="round" stroke-linejoin="round"/>
</svg>
