<svg width="40" height="40" viewBox="0 0 40 40" fill="none" xmlns="http://www.w3.org/2000/svg">
<path d="M36.6668 19.9999C36.6668 10.7999 29.2002 3.33325 20.0002 3.33325C10.8002 3.33325 3.3335 10.7999 3.3335 19.9999C3.3335 29.1999 10.8002 36.6666 20.0002 36.6666M13.3335 4.99992H15.0002C11.7502 14.7333 11.7502 25.2666 15.0002 34.9999H13.3335M25.0002 4.99992C26.6168 9.86659 27.4335 14.9333 27.4335 19.9999M5.00016 26.6666V24.9999C9.86683 26.6166 14.9335 27.4333 20.0002 27.4333M5.00016 14.9999C14.7335 11.7499 25.2668 11.7499 35.0002 14.9999M31.1668 27.0833C31.6668 28.8833 33.0668 30.2832 34.8668 30.7832M32.0169 26.2333L26.1168 32.1334C25.8835 32.3667 25.6668 32.8 25.6168 33.1166L25.3002 35.3666C25.1835 36.1833 25.7502 36.7499 26.5668 36.6333L28.8168 36.3166C29.1335 36.2666 29.5835 36.05 29.8002 35.8166L35.7002 29.9167C36.7168 28.9 37.2002 27.7166 35.7002 26.2166C34.2168 24.7333 33.0335 25.2166 32.0169 26.2333Z" stroke="#4285F4" stroke-width="1.5" stroke-miterlimit="10" stroke-linecap="round" stroke-linejoin="round"/>
</svg>
