<svg width="48" height="48" viewBox="0 0 48 48" fill="none" xmlns="http://www.w3.org/2000/svg">
<path d="M21.4998 4.89965L21.0123 4.32962L21.0105 4.33124L21.4998 4.89965ZM26.5397 4.89965L27.0291 4.33121L27.0231 4.32618L26.5397 4.89965ZM29.6998 7.61986L30.191 7.05309L30.1891 7.05145L29.6998 7.61986ZM40.4197 18.3398L40.9882 17.8505L40.9865 17.8486L40.4197 18.3398ZM43.1398 21.4997L43.7098 21.0123L43.7082 21.0105L43.1398 21.4997ZM43.1398 26.5398L43.7082 27.0291L43.7132 27.0231L43.1398 26.5398ZM40.4197 29.6997L40.9865 30.1909L40.9882 30.189L40.4197 29.6997ZM29.6998 40.4197L30.189 40.9881L30.191 40.9864L29.6998 40.4197ZM26.5397 43.1396L27.0272 43.7097L27.029 43.7081L26.5397 43.1396ZM21.4998 43.1396L21.0105 43.7081L21.0164 43.7131L21.4998 43.1396ZM18.3398 40.4197L17.8486 40.9864L17.8505 40.9881L18.3398 40.4197ZM7.57978 29.6997L8.15597 29.2195L8.15149 29.2143L7.57978 29.6997ZM4.87977 26.5198L4.30564 27.0024L4.30805 27.0052L4.87977 26.5198ZM4.87977 21.5198L4.30804 21.0343L4.30565 21.0372L4.87977 21.5198ZM7.57978 18.3398L8.15152 18.8253L8.15594 18.82L7.57978 18.3398ZM18.3398 7.61986L17.8505 7.05146L17.8486 7.0531L18.3398 7.61986ZM22.6797 31.8797L23.2101 31.3494L23.1762 31.3155L23.1382 31.2862L22.6797 31.8797ZM30.6198 30.4798L29.907 30.2464L29.8986 30.2719L29.8921 30.2979L30.6198 30.4798ZM32.8597 23.6397L32.1527 23.3895L32.1497 23.3979L32.147 23.4063L32.8597 23.6397ZM26.3998 20.0799L25.6584 19.9662L25.6567 19.9779L25.6552 19.9897L26.3998 20.0799ZM26.8597 17.0799L26.1264 16.9228L26.1218 16.9444L26.1184 16.9662L26.8597 17.0799ZM25.6398 15.0199L25.3744 15.7213L25.3884 15.7266L25.4026 15.7314L25.6398 15.0199ZM23.5798 15.6798L22.9592 15.2586L22.9578 15.2607L23.5798 15.6798ZM21.4998 4.89965L21.9872 5.46967C23.0845 4.53135 24.9336 4.52678 26.0564 5.47312L26.5397 4.89965L27.0231 4.32618C25.3459 2.91252 22.675 2.90795 21.0123 4.32962L21.4998 4.89965ZM26.5397 4.89965L26.0504 5.46806L29.2105 8.18827L29.6998 7.61986L30.1891 7.05145L27.029 4.33124L26.5397 4.89965ZM29.6998 7.61986L29.2086 8.18663C29.5956 8.52202 30.1116 8.79663 30.6223 8.9874C31.1329 9.17819 31.7042 9.3098 32.2197 9.3098V8.5598V7.8098C31.9353 7.8098 31.5465 7.73144 31.1472 7.58226C30.7479 7.43307 30.404 7.23771 30.191 7.0531L29.6998 7.61986ZM32.2197 8.5598V9.3098H35.6198V8.5598V7.8098H32.2197V8.5598ZM35.6198 8.5598V9.3098C37.3256 9.3098 38.7297 10.7139 38.7297 12.4197H39.4797H40.2297C40.2297 9.88542 38.1539 7.8098 35.6198 7.8098V8.5598ZM39.4797 12.4197H38.7297V15.8198H39.4797H40.2297V12.4197H39.4797ZM39.4797 15.8198H38.7297C38.7297 16.3264 38.8619 16.8977 39.0517 17.4086C39.2416 17.9195 39.516 18.4422 39.853 18.831L40.4197 18.3398L40.9865 17.8486C40.8035 17.6375 40.6079 17.2901 40.4578 16.8861C40.3076 16.482 40.2297 16.0933 40.2297 15.8198H39.4797ZM40.4197 18.3398L39.8513 18.8291L42.5714 21.989L43.1398 21.4997L43.7082 21.0105L40.9882 17.8505L40.4197 18.3398ZM43.1398 21.4997L42.5697 21.9872C43.5081 23.0845 43.5126 24.9337 42.5663 26.0564L43.1398 26.5398L43.7132 27.0231C45.1269 25.3459 45.1315 22.675 43.7098 21.0123L43.1398 21.4997ZM43.1398 26.5398L42.5714 26.0505L39.8513 29.2104L40.4197 29.6997L40.9882 30.189L43.7082 27.0291L43.1398 26.5398ZM40.4197 29.6997L39.853 29.2085C39.5176 29.5955 39.243 30.1116 39.0522 30.6222C38.8614 31.1329 38.7297 31.7042 38.7297 32.2197H39.4797H40.2297C40.2297 31.9353 40.3081 31.5465 40.4573 31.1472C40.6065 30.7478 40.8019 30.4039 40.9865 30.1909L40.4197 29.6997ZM39.4797 32.2197H38.7297V35.6199H39.4797H40.2297V32.2197H39.4797ZM39.4797 35.6199H38.7297C38.7297 37.3256 37.3256 38.7297 35.6198 38.7297V39.4797V40.2297C38.1539 40.2297 40.2297 38.1541 40.2297 35.6199H39.4797ZM35.6198 39.4797V38.7297H32.2197V39.4797V40.2297H35.6198V39.4797ZM32.2197 39.4797V38.7297C31.7132 38.7297 31.1419 38.8618 30.631 39.0517C30.1201 39.2415 29.5975 39.5159 29.2086 39.8529L29.6998 40.4197L30.191 40.9864C30.4021 40.8035 30.7495 40.6078 31.1535 40.4577C31.5576 40.3076 31.9463 40.2297 32.2197 40.2297V39.4797ZM29.6998 40.4197L29.2105 39.8512L26.0505 42.5712L26.5397 43.1396L27.029 43.7081L30.189 40.9881L29.6998 40.4197ZM26.5397 43.1396L26.0523 42.5696C24.955 43.5079 23.1059 43.5125 21.9831 42.5662L21.4998 43.1396L21.0164 43.7131C22.6936 45.1268 25.3645 45.1313 27.0272 43.7097L26.5397 43.1396ZM21.4998 43.1396L21.989 42.5712L18.8291 39.8512L18.3398 40.4197L17.8505 40.9881L21.0105 43.7081L21.4998 43.1396ZM18.3398 40.4197L18.831 39.8529C18.444 39.5175 17.9279 39.2429 17.4173 39.0521C16.9066 38.8613 16.3353 38.7297 15.8198 38.7297V39.4797V40.2297C16.1042 40.2297 16.493 40.3081 16.8923 40.4573C17.2917 40.6065 17.6356 40.8018 17.8486 40.9864L18.3398 40.4197ZM15.8198 39.4797V38.7297H12.3597V39.4797V40.2297H15.8198V39.4797ZM12.3597 39.4797V38.7297C10.6539 38.7297 9.24976 37.3256 9.24976 35.6199H8.49976H7.74976C7.74976 38.1541 9.82556 40.2297 12.3597 40.2297V39.4797ZM8.49976 35.6199H9.24976V32.1997H8.49976H7.74976V35.6199H8.49976ZM8.49976 32.1997H9.24976C9.24976 31.6927 9.11738 31.1264 8.93063 30.6218C8.74349 30.1163 8.47628 29.604 8.15594 29.2196L7.57978 29.6997L7.00361 30.1798C7.18327 30.3954 7.37605 30.7431 7.52391 31.1426C7.67215 31.543 7.74976 31.9267 7.74976 32.1997H8.49976ZM7.57978 29.6997L8.15149 29.2143L5.45148 26.0343L4.87977 26.5198L4.30805 27.0052L7.00806 30.1851L7.57978 29.6997ZM4.87977 26.5198L5.45388 26.0372C4.52839 24.9362 4.52839 23.1034 5.45388 22.0024L4.87977 21.5198L4.30565 21.0372C2.91114 22.6962 2.91114 25.3434 4.30565 27.0024L4.87977 26.5198ZM4.87977 21.5198L5.45148 22.0052L8.15149 18.8253L7.57978 18.3398L7.00806 17.8544L4.30805 21.0343L4.87977 21.5198ZM7.57978 18.3398L8.15594 18.82C8.47628 18.4356 8.74349 17.9232 8.93063 17.4177C9.11738 16.9132 9.24976 16.3469 9.24976 15.8398H8.49976H7.74976C7.74976 16.1128 7.67215 16.4965 7.52391 16.897C7.37605 17.2964 7.18327 17.6441 7.00361 17.8597L7.57978 18.3398ZM8.49976 15.8398H9.24976V12.4197H8.49976H7.74976V15.8398H8.49976ZM8.49976 12.4197H9.24976C9.24976 10.7139 10.6539 9.3098 12.3597 9.3098V8.5598V7.8098C9.82556 7.8098 7.74976 9.88542 7.74976 12.4197H8.49976ZM12.3597 8.5598V9.3098H15.8198V8.5598V7.8098H12.3597V8.5598ZM15.8198 8.5598V9.3098C16.3263 9.3098 16.8976 9.1777 17.4085 8.98788C17.9195 8.79802 18.4421 8.52366 18.831 8.18663L18.3398 7.61986L17.8486 7.0531C17.6375 7.23607 17.2901 7.43168 16.8861 7.58179C16.4819 7.73194 16.0932 7.8098 15.8198 7.8098V8.5598ZM18.3398 7.61986L18.8291 8.18827L21.9891 5.46805L21.4998 4.89965L21.0105 4.33124L17.8505 7.05146L18.3398 7.61986ZM19.7798 29.6397L19.3213 30.2333L22.2213 32.4733L22.6797 31.8797L23.1382 31.2862L20.2383 29.0462L19.7798 29.6397ZM22.6797 31.8797L22.1494 32.41C22.473 32.7337 22.9233 32.9181 23.2984 33.024C23.6912 33.135 24.1098 33.1898 24.4598 33.1898V32.4398V31.6898C24.2498 31.6898 23.9683 31.6546 23.7061 31.5805C23.4262 31.5014 23.2665 31.4058 23.2101 31.3494L22.6797 31.8797ZM24.4598 32.4398V33.1898H27.9998V32.4398V31.6898H24.4598V32.4398ZM27.9998 32.4398V33.1898C28.7392 33.1898 29.476 32.9164 30.0666 32.4858C30.6577 32.0548 31.1563 31.426 31.3474 30.6617L30.6198 30.4798L29.8921 30.2979C29.8032 30.6537 29.5518 31.0048 29.1829 31.2738C28.8135 31.5431 28.3803 31.6898 27.9998 31.6898V32.4398ZM30.6198 30.4798L31.3325 30.7132L33.5725 23.8731L32.8597 23.6397L32.147 23.4063L29.907 30.2464L30.6198 30.4798ZM32.8597 23.6397L33.5668 23.8899C33.8708 23.0307 33.761 22.1569 33.2725 21.4893C32.7863 20.825 31.9878 20.4498 31.0798 20.4498V21.1998V21.9498C31.5717 21.9498 31.8932 22.1445 32.062 22.3752C32.2285 22.6026 32.3087 22.9488 32.1527 23.3895L32.8597 23.6397ZM31.0798 21.1998V20.4498H27.3398V21.1998V21.9498H31.0798V21.1998ZM27.3398 21.1998V20.4498C27.2679 20.4498 27.2195 20.422 27.1911 20.3899C27.1669 20.3627 27.1286 20.3001 27.1443 20.1702L26.3998 20.0799L25.6552 19.9897C25.5211 21.0965 26.3299 21.9498 27.3398 21.9498V21.1998ZM26.3998 20.0799L27.1411 20.1936L27.6011 17.1936L26.8597 17.0799L26.1184 16.9662L25.6584 19.9662L26.3998 20.0799ZM26.8597 17.0799L27.5931 17.2371C27.8578 16.0019 27.0583 14.7021 25.8769 14.3083L25.6398 15.0199L25.4026 15.7314C25.9012 15.8976 26.2217 16.4779 26.1264 16.9228L26.8597 17.0799ZM25.6398 15.0199L25.9052 14.3184C25.334 14.1023 24.7285 14.1531 24.2292 14.3262C23.734 14.4978 23.2575 14.819 22.9592 15.2586L23.5798 15.6798L24.2004 16.1009C24.282 15.9806 24.4656 15.8318 24.7204 15.7434C24.971 15.6566 25.2055 15.6574 25.3744 15.7213L25.6398 15.0199ZM23.5798 15.6798L22.9578 15.2607L19.1177 20.9607L19.7397 21.3797L20.3618 21.7988L24.2018 16.0988L23.5798 15.6798ZM14.9998 29.6396H15.7498V20.4797H14.9998H14.2498V29.6396H14.9998ZM14.9998 20.4797H15.7498C15.7498 19.9021 15.8757 19.7172 15.952 19.6472C16.0442 19.5625 16.2735 19.4497 16.8798 19.4497V18.6997V17.9497C16.1661 17.9497 15.4553 18.0669 14.9375 18.5422C14.4038 19.0323 14.2498 19.7374 14.2498 20.4797H14.9998ZM16.8798 18.6997V19.4497H17.8198V18.6997V17.9497H16.8798V18.6997ZM17.8198 18.6997V19.4497C18.413 19.4497 18.6457 19.5613 18.7423 19.6493C18.8219 19.7217 18.9498 19.9087 18.9498 20.4797H19.6998H20.4498C20.4498 19.7308 20.2877 19.0278 19.7522 18.5402C19.2338 18.0681 18.5265 17.9497 17.8198 17.9497V18.6997ZM19.6998 20.4797H18.9498V29.6396H19.6998H20.4498V20.4797H19.6998ZM19.6998 29.6396H18.9498C18.9498 30.2038 18.8253 30.3926 18.7451 30.4669C18.6508 30.5543 18.4196 30.6697 17.8198 30.6697V31.4197V32.1697C18.5399 32.1697 19.2488 32.045 19.7644 31.5674C20.2942 31.0767 20.4498 30.3755 20.4498 29.6396H19.6998ZM17.8198 31.4197V30.6697H16.8798V31.4197V32.1697H17.8198V31.4197ZM16.8798 31.4197V30.6697C16.2735 30.6697 16.0442 30.5569 15.952 30.4722C15.8757 30.4022 15.7498 30.2173 15.7498 29.6396H14.9998H14.2498C14.2498 30.382 14.4038 31.0871 14.9375 31.5771C15.4553 32.0525 16.1661 32.1697 16.8798 32.1697V31.4197Z" fill="white"/>
</svg>
