<svg width="48" height="48" viewBox="0 0 48 48" fill="none" xmlns="http://www.w3.org/2000/svg">
<path d="M44 16.0002V26.0002C44 34.0002 40 38.0002 32 38.0002H31C30.38 38.0002 29.78 38.3002 29.4 38.8002L26.4 42.8002C25.08 44.5602 22.92 44.5602 21.6 42.8002L18.6 38.8002C18.28 38.3602 17.54 38.0002 17 38.0002H16C8 38.0002 4 36.0002 4 26.0002V16.0002C4 8.00016 8 4.00016 16 4.00016H24M31.9929 22.0002H32.0109M23.991 22.0002H24.0089M15.989 22.0002H16.007M30.4 9.24016C29.74 7.26016 30.52 4.82016 32.68 4.14016C33.8 3.80016 35.2 4.08016 36 5.14016C36.76 4.04016 38.2 3.80016 39.32 4.14016C41.48 4.80016 42.26 7.26016 41.6 9.24016C40.58 12.3802 37 14.0002 36 14.0002C35 14.0002 31.46 12.4002 30.4 9.24016Z" stroke="white" stroke-width="1.5" stroke-linecap="round" stroke-linejoin="round"/>
</svg>
