<svg width="40" height="40" viewBox="0 0 40 40" fill="none" xmlns="http://www.w3.org/2000/svg">
<path d="M34.9168 11.2332C34.9168 5.61655 33.5168 4.21655 27.9002 4.21655H10.3502C4.7335 4.21655 3.3335 5.61655 3.3335 11.2332V21.2332C3.3335 26.8499 4.7335 28.2499 10.3502 28.2499H16.6668V35.7832H11.2335M3.3335 21.5832H16.6668M28.741 30.4166H28.756M36.6668 21.3332V30.8499C36.6668 34.7999 35.6835 35.7832 31.7335 35.7832H25.8168C21.8668 35.7832 20.8835 34.7999 20.8835 30.8499V21.3332C20.8835 17.3832 21.8668 16.3999 25.8168 16.3999H31.7335C35.6835 16.3999 36.6668 17.3832 36.6668 21.3332Z" stroke="#4285F4" stroke-width="1.5" stroke-linecap="round" stroke-linejoin="round"/>
</svg>
