<svg width="40" height="40" viewBox="0 0 40 40" fill="none" xmlns="http://www.w3.org/2000/svg">
<path d="M19.9998 20.8333C21.8407 20.8333 23.3331 19.3409 23.3331 17.4999C23.3331 15.659 21.8407 14.1666 19.9998 14.1666C18.1588 14.1666 16.6664 15.659 16.6664 17.4999C16.6664 19.3409 18.1588 20.8333 19.9998 20.8333ZM19.9998 20.8333V25.8333M17.4831 3.7166L9.16644 6.84994C7.24977 7.5666 5.68311 9.83327 5.68311 11.8666V24.2499C5.68311 26.2166 6.98311 28.7999 8.56644 29.9833L15.7331 35.3333C18.0831 37.0999 21.9498 37.0999 24.2998 35.3333L31.4664 29.9833C33.0498 28.7999 34.3498 26.2166 34.3498 24.2499V11.8666C34.3498 9.8166 32.7831 7.54994 30.8664 6.83327L22.5498 3.7166C21.1331 3.19993 18.8664 3.19993 17.4831 3.7166Z" stroke="#4285F4" stroke-width="1.5" stroke-miterlimit="10" stroke-linecap="round" stroke-linejoin="round"/>
</svg>
