<svg width="90" height="90" viewBox="0 0 90 90" fill="none" xmlns="http://www.w3.org/2000/svg">
<circle cx="45" cy="45" r="45" fill="white"/>
<path d="M42.4998 25.8996L42.0123 25.3296L42.0105 25.3312L42.4998 25.8996ZM47.5397 25.8996L48.0291 25.3312L48.0231 25.3262L47.5397 25.8996ZM50.6998 28.6199L51.191 28.0531L51.1891 28.0515L50.6998 28.6199ZM61.4197 39.3398L61.9882 38.8505L61.9865 38.8486L61.4197 39.3398ZM64.1398 42.4997L64.7098 42.0123L64.7082 42.0105L64.1398 42.4997ZM64.1398 47.5398L64.7082 48.0291L64.7132 48.0231L64.1398 47.5398ZM61.4197 50.6997L61.9865 51.1909L61.9882 51.189L61.4197 50.6997ZM50.6998 61.4197L51.189 61.9881L51.191 61.9864L50.6998 61.4197ZM47.5397 64.1396L48.0272 64.7097L48.029 64.7081L47.5397 64.1396ZM42.4998 64.1396L42.0105 64.7081L42.0164 64.7131L42.4998 64.1396ZM39.3398 61.4197L38.8486 61.9864L38.8505 61.9881L39.3398 61.4197ZM28.5798 50.6997L29.156 50.2195L29.1515 50.2143L28.5798 50.6997ZM25.8798 47.5198L25.3056 48.0024L25.3081 48.0052L25.8798 47.5198ZM25.8798 42.5198L25.308 42.0343L25.3057 42.0372L25.8798 42.5198ZM28.5798 39.3398L29.1515 39.8253L29.1559 39.82L28.5798 39.3398ZM39.3398 28.6199L38.8505 28.0515L38.8486 28.0531L39.3398 28.6199ZM43.6797 52.8797L44.2101 52.3494L44.1762 52.3155L44.1382 52.2862L43.6797 52.8797ZM51.6198 51.4798L50.907 51.2464L50.8986 51.2719L50.8921 51.2979L51.6198 51.4798ZM53.8597 44.6397L53.1527 44.3895L53.1497 44.3979L53.147 44.4063L53.8597 44.6397ZM47.3998 41.0799L46.6584 40.9662L46.6567 40.9779L46.6552 40.9897L47.3998 41.0799ZM47.8597 38.0799L47.1264 37.9228L47.1218 37.9444L47.1184 37.9662L47.8597 38.0799ZM46.6398 36.0199L46.3744 36.7213L46.3884 36.7266L46.4026 36.7314L46.6398 36.0199ZM44.5798 36.6798L43.9592 36.2586L43.9578 36.2607L44.5798 36.6798ZM42.4998 25.8996L42.9872 26.4697C44.0845 25.5313 45.9336 25.5268 47.0564 26.4731L47.5397 25.8996L48.0231 25.3262C46.3459 23.9125 43.675 23.9079 42.0123 25.3296L42.4998 25.8996ZM47.5397 25.8996L47.0504 26.4681L50.2105 29.1883L50.6998 28.6199L51.1891 28.0515L48.029 25.3312L47.5397 25.8996ZM50.6998 28.6199L50.2086 29.1866C50.5956 29.522 51.1116 29.7966 51.6223 29.9874C52.1329 30.1782 52.7042 30.3098 53.2197 30.3098V29.5598V28.8098C52.9353 28.8098 52.5465 28.7314 52.1472 28.5823C51.7479 28.4331 51.404 28.2377 51.191 28.0531L50.6998 28.6199ZM53.2197 29.5598V30.3098H56.6198V29.5598V28.8098H53.2197V29.5598ZM56.6198 29.5598V30.3098C58.3256 30.3098 59.7297 31.7139 59.7297 33.4197H60.4797H61.2297C61.2297 30.8854 59.1539 28.8098 56.6198 28.8098V29.5598ZM60.4797 33.4197H59.7297V36.8198H60.4797H61.2297V33.4197H60.4797ZM60.4797 36.8198H59.7297C59.7297 37.3264 59.8619 37.8977 60.0517 38.4086C60.2416 38.9195 60.516 39.4422 60.853 39.831L61.4197 39.3398L61.9865 38.8486C61.8035 38.6375 61.6079 38.2901 61.4578 37.8861C61.3076 37.482 61.2297 37.0933 61.2297 36.8198H60.4797ZM61.4197 39.3398L60.8513 39.8291L63.5714 42.989L64.1398 42.4997L64.7082 42.0105L61.9882 38.8505L61.4197 39.3398ZM64.1398 42.4997L63.5697 42.9872C64.5081 44.0845 64.5126 45.9337 63.5663 47.0564L64.1398 47.5398L64.7132 48.0231C66.1269 46.3459 66.1315 43.675 64.7098 42.0123L64.1398 42.4997ZM64.1398 47.5398L63.5714 47.0505L60.8513 50.2104L61.4197 50.6997L61.9882 51.189L64.7082 48.0291L64.1398 47.5398ZM61.4197 50.6997L60.853 50.2085C60.5176 50.5955 60.243 51.1116 60.0522 51.6222C59.8614 52.1329 59.7297 52.7042 59.7297 53.2197H60.4797H61.2297C61.2297 52.9353 61.3081 52.5465 61.4573 52.1472C61.6065 51.7478 61.8019 51.4039 61.9865 51.1909L61.4197 50.6997ZM60.4797 53.2197H59.7297V56.6199H60.4797H61.2297V53.2197H60.4797ZM60.4797 56.6199H59.7297C59.7297 58.3256 58.3256 59.7297 56.6198 59.7297V60.4797V61.2297C59.1539 61.2297 61.2297 59.1541 61.2297 56.6199H60.4797ZM56.6198 60.4797V59.7297H53.2197V60.4797V61.2297H56.6198V60.4797ZM53.2197 60.4797V59.7297C52.7132 59.7297 52.1419 59.8618 51.631 60.0517C51.1201 60.2415 50.5975 60.5159 50.2086 60.8529L50.6998 61.4197L51.191 61.9864C51.4021 61.8035 51.7495 61.6078 52.1535 61.4577C52.5576 61.3076 52.9463 61.2297 53.2197 61.2297V60.4797ZM50.6998 61.4197L50.2105 60.8512L47.0505 63.5712L47.5397 64.1396L48.029 64.7081L51.189 61.9881L50.6998 61.4197ZM47.5397 64.1396L47.0523 63.5696C45.955 64.5079 44.1059 64.5125 42.9831 63.5662L42.4998 64.1396L42.0164 64.7131C43.6936 66.1268 46.3645 66.1313 48.0272 64.7097L47.5397 64.1396ZM42.4998 64.1396L42.989 63.5712L39.8291 60.8512L39.3398 61.4197L38.8505 61.9881L42.0105 64.7081L42.4998 64.1396ZM39.3398 61.4197L39.831 60.8529C39.444 60.5175 38.9279 60.2429 38.4173 60.0521C37.9066 59.8613 37.3353 59.7297 36.8198 59.7297V60.4797V61.2297C37.1042 61.2297 37.493 61.3081 37.8923 61.4573C38.2917 61.6065 38.6356 61.8018 38.8486 61.9864L39.3398 61.4197ZM36.8198 60.4797V59.7297H33.3597V60.4797V61.2297H36.8198V60.4797ZM33.3597 60.4797V59.7297C31.6539 59.7297 30.2498 58.3256 30.2498 56.6199H29.4998H28.7498C28.7498 59.1541 30.8256 61.2297 33.3597 61.2297V60.4797ZM29.4998 56.6199H30.2498V53.1997H29.4998H28.7498V56.6199H29.4998ZM29.4998 53.1997H30.2498C30.2498 52.6927 30.1174 52.1264 29.9306 51.6218C29.7435 51.1163 29.4763 50.604 29.1559 50.2196L28.5798 50.6997L28.0036 51.1798C28.1833 51.3954 28.3761 51.7431 28.5239 52.1426C28.6721 52.543 28.7498 52.9267 28.7498 53.1997H29.4998ZM28.5798 50.6997L29.1515 50.2143L26.4515 47.0343L25.8798 47.5198L25.3081 48.0052L28.0081 51.1851L28.5798 50.6997ZM25.8798 47.5198L26.4539 47.0372C25.5284 45.9362 25.5284 44.1034 26.4539 43.0024L25.8798 42.5198L25.3057 42.0372C23.9111 43.6962 23.9111 46.3434 25.3057 48.0024L25.8798 47.5198ZM25.8798 42.5198L26.4515 43.0052L29.1515 39.8253L28.5798 39.3398L28.0081 38.8544L25.3081 42.0343L25.8798 42.5198ZM28.5798 39.3398L29.1559 39.82C29.4763 39.4356 29.7435 38.9232 29.9306 38.4177C30.1174 37.9132 30.2498 37.3469 30.2498 36.8398H29.4998H28.7498C28.7498 37.1128 28.6721 37.4965 28.5239 37.897C28.3761 38.2964 28.1833 38.6441 28.0036 38.8597L28.5798 39.3398ZM29.4998 36.8398H30.2498V33.4197H29.4998H28.7498V36.8398H29.4998ZM29.4998 33.4197H30.2498C30.2498 31.7139 31.6539 30.3098 33.3597 30.3098V29.5598V28.8098C30.8256 28.8098 28.7498 30.8854 28.7498 33.4197H29.4998ZM33.3597 29.5598V30.3098H36.8198V29.5598V28.8098H33.3597V29.5598ZM36.8198 29.5598V30.3098C37.3263 30.3098 37.8976 30.1777 38.4085 29.9879C38.9195 29.798 39.4421 29.5237 39.831 29.1866L39.3398 28.6199L38.8486 28.0531C38.6375 28.2361 38.2901 28.4317 37.8861 28.5818C37.4819 28.7319 37.0932 28.8098 36.8198 28.8098V29.5598ZM39.3398 28.6199L39.8291 29.1883L42.9891 26.4681L42.4998 25.8996L42.0105 25.3312L38.8505 28.0515L39.3398 28.6199ZM40.7798 50.6397L40.3213 51.2333L43.2213 53.4733L43.6797 52.8797L44.1382 52.2862L41.2383 50.0462L40.7798 50.6397ZM43.6797 52.8797L43.1494 53.41C43.473 53.7337 43.9233 53.9181 44.2984 54.024C44.6912 54.135 45.1098 54.1898 45.4598 54.1898V53.4398V52.6898C45.2498 52.6898 44.9683 52.6546 44.7061 52.5805C44.4262 52.5014 44.2665 52.4058 44.2101 52.3494L43.6797 52.8797ZM45.4598 53.4398V54.1898H48.9998V53.4398V52.6898H45.4598V53.4398ZM48.9998 53.4398V54.1898C49.7392 54.1898 50.476 53.9164 51.0666 53.4858C51.6577 53.0548 52.1563 52.426 52.3474 51.6617L51.6198 51.4798L50.8921 51.2979C50.8032 51.6537 50.5518 52.0048 50.1829 52.2738C49.8135 52.5431 49.3803 52.6898 48.9998 52.6898V53.4398ZM51.6198 51.4798L52.3325 51.7132L54.5725 44.8731L53.8597 44.6397L53.147 44.4063L50.907 51.2464L51.6198 51.4798ZM53.8597 44.6397L54.5668 44.8899C54.8708 44.0307 54.761 43.1569 54.2725 42.4893C53.7863 41.825 52.9878 41.4498 52.0798 41.4498V42.1998V42.9498C52.5717 42.9498 52.8932 43.1445 53.062 43.3752C53.2285 43.6026 53.3087 43.9488 53.1527 44.3895L53.8597 44.6397ZM52.0798 42.1998V41.4498H48.3398V42.1998V42.9498H52.0798V42.1998ZM48.3398 42.1998V41.4498C48.2679 41.4498 48.2195 41.422 48.1911 41.3899C48.1669 41.3627 48.1286 41.3001 48.1443 41.1702L47.3998 41.0799L46.6552 40.9897C46.5211 42.0965 47.3299 42.9498 48.3398 42.9498V42.1998ZM47.3998 41.0799L48.1411 41.1936L48.6011 38.1936L47.8597 38.0799L47.1184 37.9662L46.6584 40.9662L47.3998 41.0799ZM47.8597 38.0799L48.5931 38.2371C48.8578 37.0019 48.0583 35.7021 46.8769 35.3083L46.6398 36.0199L46.4026 36.7314C46.9012 36.8976 47.2217 37.4779 47.1264 37.9228L47.8597 38.0799ZM46.6398 36.0199L46.9052 35.3184C46.334 35.1023 45.7285 35.1531 45.2292 35.3262C44.734 35.4978 44.2575 35.819 43.9592 36.2586L44.5798 36.6798L45.2004 37.1009C45.282 36.9806 45.4656 36.8318 45.7204 36.7434C45.971 36.6566 46.2055 36.6574 46.3744 36.7213L46.6398 36.0199ZM44.5798 36.6798L43.9578 36.2607L40.1177 41.9607L40.7397 42.3797L41.3618 42.7988L45.2018 37.0988L44.5798 36.6798ZM35.9998 50.6396H36.7498V41.4797H35.9998H35.2498V50.6396H35.9998ZM35.9998 41.4797H36.7498C36.7498 40.9021 36.8757 40.7172 36.952 40.6472C37.0442 40.5625 37.2735 40.4497 37.8798 40.4497V39.6997V38.9497C37.1661 38.9497 36.4553 39.0669 35.9375 39.5422C35.4038 40.0323 35.2498 40.7374 35.2498 41.4797H35.9998ZM37.8798 39.6997V40.4497H38.8198V39.6997V38.9497H37.8798V39.6997ZM38.8198 39.6997V40.4497C39.413 40.4497 39.6457 40.5613 39.7423 40.6493C39.8219 40.7217 39.9498 40.9087 39.9498 41.4797H40.6998H41.4498C41.4498 40.7308 41.2877 40.0278 40.7522 39.5402C40.2338 39.0681 39.5265 38.9497 38.8198 38.9497V39.6997ZM40.6998 41.4797H39.9498V50.6396H40.6998H41.4498V41.4797H40.6998ZM40.6998 50.6396H39.9498C39.9498 51.2038 39.8253 51.3926 39.7451 51.4669C39.6508 51.5543 39.4196 51.6697 38.8198 51.6697V52.4197V53.1697C39.5399 53.1697 40.2488 53.045 40.7644 52.5674C41.2942 52.0767 41.4498 51.3755 41.4498 50.6396H40.6998ZM38.8198 52.4197V51.6697H37.8798V52.4197V53.1697H38.8198V52.4197ZM37.8798 52.4197V51.6697C37.2735 51.6697 37.0442 51.5569 36.952 51.4722C36.8757 51.4022 36.7498 51.2173 36.7498 50.6396H35.9998H35.2498C35.2498 51.382 35.4038 52.0871 35.9375 52.5771C36.4553 53.0525 37.1661 53.1697 37.8798 53.1697V52.4197Z" fill="#4285F4"/>
</svg>
