<svg width="90" height="90" viewBox="0 0 90 90" fill="none" xmlns="http://www.w3.org/2000/svg">
<circle cx="45" cy="45" r="45" fill="white"/>
<g clip-path="url(#clip0_8289_2916)">
<path d="M48.1921 35.4255V41.8085H52.9793C53.2147 41.8085 53.4361 41.9122 53.5877 42.0898C53.7393 42.2693 53.8051 42.5047 53.7653 42.736L52.9674 47.5233C52.9035 47.9102 52.5724 48.1915 52.1815 48.1915H48.1921V61.7551C48.1921 62.1959 47.835 62.5529 47.3942 62.5529H42.607C42.1662 62.5529 41.8091 62.1959 41.8091 61.7551V48.1915H37.0219C36.5811 48.1915 36.224 47.8344 36.224 47.3936V42.6064C36.224 42.1656 36.5811 41.8085 37.0219 41.8085H41.8091V33.8298C41.8091 30.75 44.3144 28.2444 47.3945 28.2444H52.1817C52.6225 28.2444 52.9796 28.6015 52.9796 29.0423C52.9796 29.4831 52.6225 29.8402 52.1817 29.8402H47.3945C45.1943 29.8402 43.4051 31.6294 43.4051 33.8295V42.6064C43.4051 43.0472 43.0481 43.4043 42.6072 43.4043H37.82V46.5957H42.6072C43.0481 46.5957 43.4051 46.9528 43.4051 47.3936V60.9572H46.5966V47.3936C46.5966 46.9528 46.9537 46.5957 47.3945 46.5957H51.5055L52.0381 43.4043H47.3945C46.9537 43.4043 46.5966 43.0472 46.5966 42.6064V35.4258C46.5966 34.1053 47.6698 33.0322 48.9902 33.0322H53.7775V31.4364C53.7775 30.9956 54.1345 30.6386 54.5753 30.6386C55.0161 30.6386 55.3732 30.9956 55.3732 31.4364V33.83C55.3732 34.2709 55.0161 34.6279 54.5753 34.6279H48.99C48.5491 34.6279 48.1921 34.9847 48.1921 35.4255ZM63.3519 21.0638H26.6498C23.5701 21.0638 21.0645 23.5691 21.0645 26.6492V63.3513C21.0645 66.4311 23.5697 68.9367 26.6498 68.9367H63.3519C66.4317 68.9367 68.9373 66.4314 68.9373 63.3513V57.766C68.9373 57.3251 68.5803 56.9681 68.1394 56.9681C67.6986 56.9681 67.3416 57.3251 67.3416 57.766V63.3513C67.3416 65.5515 65.5523 67.3407 63.3522 67.3407H26.6501C24.4499 67.3407 22.6607 65.5515 22.6607 63.3513V26.6492C22.6607 24.4491 24.4499 22.6598 26.6501 22.6598H63.3522C65.5523 22.6598 67.3416 24.4491 67.3416 26.6492V51.3835C67.3416 51.8243 67.6986 52.1814 68.1394 52.1814C68.5803 52.1814 68.9373 51.8243 68.9373 51.3835V26.6492C68.9373 23.5694 66.432 21.0638 63.3519 21.0638ZM55.1419 28.4763C54.8467 28.1811 54.3041 28.1811 54.0089 28.4763C53.8653 28.6279 53.7775 28.8273 53.7775 29.0428C53.7775 29.2582 53.8653 29.4577 54.0089 29.6093C54.1605 29.7529 54.36 29.8407 54.5754 29.8407C54.7908 29.8407 54.9903 29.7529 55.1419 29.6093C55.2855 29.4577 55.3733 29.2502 55.3733 29.0428C55.3733 28.8353 55.2855 28.6279 55.1419 28.4763ZM68.1392 52.9787C67.6984 52.9787 67.3413 53.3358 67.3413 53.7766V55.3724C67.3413 55.8132 67.6984 56.1702 68.1392 56.1702C68.58 56.1702 68.937 55.8132 68.937 55.3724V53.7766C68.937 53.3358 68.58 52.9787 68.1392 52.9787Z" fill="#015FC9"/>
</g>
<defs>
<clipPath id="clip0_8289_2916">
<rect width="48" height="48" fill="white" transform="translate(21 21)"/>
</clipPath>
</defs>
</svg>
