<svg width="293" height="64" viewBox="0 0 293 64" fill="none" xmlns="http://www.w3.org/2000/svg">
<g clip-path="url(#paint0_angular_25_2166_clip_path)" data-figma-skip-parse="true"><g transform="matrix(-0.0275333 0.00722277 -0.00811256 -0.0296413 29.5 31.5)"><foreignObject x="-1334.96" y="-1334.96" width="2669.93" height="2669.93"><div xmlns="http://www.w3.org/1999/xhtml" style="background:conic-gradient(from 90deg,rgba(147, 199, 97, 1) 0deg,rgba(166, 203, 59, 1) 18.8459deg,rgba(216, 216, 54, 1) 52.7641deg,rgba(235, 179, 41, 1) 89.3208deg,rgba(224, 113, 44, 1) 133.923deg,rgba(218, 63, 56, 1) 164.755deg,rgba(104, 63, 249, 1) 198.199deg,rgba(55, 90, 250, 1) 235.509deg,rgba(93, 127, 249, 1) 275.03deg,rgba(89, 155, 250, 1) 315.02deg,rgba(128, 196, 137, 1) 340.635deg,rgba(147, 199, 97, 1) 360deg);height:100%;width:100%;opacity:1"></div></foreignObject></g></g><path d="M41.7259 56.4556C37.7821 58.1902 33.6805 58.9787 29.5 58.9787C23.9786 58.9787 18.9305 57.7172 14.4345 55.1151C9.9385 52.5131 6.38904 48.965 3.86497 44.3917C1.26203 39.8974 0 34.9299 0 29.4894C0 24.1277 1.26203 19.1602 3.86497 14.587C6.38904 10.0926 9.9385 6.54443 14.4345 3.94243C18.9305 1.34043 23.9786 0 29.5 0C35.0214 0 39.9906 1.34043 44.4866 3.94243C48.9826 6.54443 52.5321 10.0926 55.135 14.587C57.6591 19.1602 59 24.1277 59 29.4894C59 33.826 58.1324 37.8473 56.5548 41.5532C54.8984 45.3379 52.611 48.5707 49.6925 51.2516L58.2133 63H46.1431L41.7259 56.4556ZM35.889 47.7034L29.7366 38.4781C29.7366 38.4781 28.5167 34.7072 32.0567 32.6739C35.5967 30.6406 37.6243 33.1164 37.6243 33.1164L43.7767 42.4205C45.1965 40.8436 46.3797 38.8723 47.1685 36.6646C47.9572 34.4568 48.3516 32.0914 48.3516 29.4894C48.3516 25.7046 47.484 22.393 45.8275 19.3967C44.1711 16.4794 41.8837 14.1927 39.0441 12.5369C36.1257 10.9599 32.9706 10.0926 29.5 10.0926C26.0294 10.0926 22.7955 10.9599 19.9559 12.5369C17.1163 14.1927 14.8289 16.4794 13.1725 19.3967C11.516 22.393 10.7273 25.7046 10.7273 29.4894C10.7273 33.2741 11.516 36.6646 13.1725 39.582C14.8289 42.5782 17.1163 44.8648 19.9559 46.4418C22.7955 48.0976 26.0294 48.8861 29.5 48.8861C31.5508 48.8861 33.6805 48.4919 35.889 47.7034Z" data-figma-gradient-fill="{&#34;type&#34;:&#34;GRADIENT_ANGULAR&#34;,&#34;stops&#34;:[{&#34;color&#34;:{&#34;r&#34;:0.65098041296005249,&#34;g&#34;:0.79607844352722168,&#34;b&#34;:0.23137255012989044,&#34;a&#34;:1.0},&#34;position&#34;:0.052349690347909927},{&#34;color&#34;:{&#34;r&#34;:0.84705883264541626,&#34;g&#34;:0.84705883264541626,&#34;b&#34;:0.21176470816135406,&#34;a&#34;:1.0},&#34;position&#34;:0.14656703174114227},{&#34;color&#34;:{&#34;r&#34;:0.92156863212585449,&#34;g&#34;:0.70196080207824707,&#34;b&#34;:0.16078431904315948,&#34;a&#34;:1.0},&#34;position&#34;:0.24811336398124695},{&#34;color&#34;:{&#34;r&#34;:0.87843137979507446,&#34;g&#34;:0.44313725829124451,&#34;b&#34;:0.17254902422428131,&#34;a&#34;:1.0},&#34;position&#34;:0.37200948596000671},{&#34;color&#34;:{&#34;r&#34;:0.85490196943283081,&#34;g&#34;:0.24705882370471954,&#34;b&#34;:0.21960784494876862,&#34;a&#34;:1.0},&#34;position&#34;:0.45765155553817749},{&#34;color&#34;:{&#34;r&#34;:0.40784314274787903,&#34;g&#34;:0.24705882370471954,&#34;b&#34;:0.97647058963775635,&#34;a&#34;:1.0},&#34;position&#34;:0.55055218935012817},{&#34;color&#34;:{&#34;r&#34;:0.21568627655506134,&#34;g&#34;:0.35294118523597717,&#34;b&#34;:0.98039215803146362,&#34;a&#34;:1.0},&#34;position&#34;:0.65419042110443115},{&#34;color&#34;:{&#34;r&#34;:0.36661607027053833,&#34;g&#34;:0.49991825222969055,&#34;b&#34;:0.97921907901763916,&#34;a&#34;:1.0},&#34;position&#34;:0.76397085189819336},{&#34;color&#34;:{&#34;r&#34;:0.34901961684226990,&#34;g&#34;:0.60784316062927246,&#34;b&#34;:0.98039215803146362,&#34;a&#34;:1.0},&#34;position&#34;:0.87505477666854858},{&#34;color&#34;:{&#34;r&#34;:0.50196081399917603,&#34;g&#34;:0.76862746477127075,&#34;b&#34;:0.53725492954254150,&#34;a&#34;:1.0},&#34;position&#34;:0.94620835781097412}],&#34;stopsVar&#34;:[{&#34;color&#34;:{&#34;r&#34;:0.65098041296005249,&#34;g&#34;:0.79607844352722168,&#34;b&#34;:0.23137255012989044,&#34;a&#34;:1.0},&#34;position&#34;:0.052349690347909927},{&#34;color&#34;:{&#34;r&#34;:0.84705883264541626,&#34;g&#34;:0.84705883264541626,&#34;b&#34;:0.21176470816135406,&#34;a&#34;:1.0},&#34;position&#34;:0.14656703174114227},{&#34;color&#34;:{&#34;r&#34;:0.92156863212585449,&#34;g&#34;:0.70196080207824707,&#34;b&#34;:0.16078431904315948,&#34;a&#34;:1.0},&#34;position&#34;:0.24811336398124695},{&#34;color&#34;:{&#34;r&#34;:0.87843137979507446,&#34;g&#34;:0.44313725829124451,&#34;b&#34;:0.17254902422428131,&#34;a&#34;:1.0},&#34;position&#34;:0.37200948596000671},{&#34;color&#34;:{&#34;r&#34;:0.85490196943283081,&#34;g&#34;:0.24705882370471954,&#34;b&#34;:0.21960784494876862,&#34;a&#34;:1.0},&#34;position&#34;:0.45765155553817749},{&#34;color&#34;:{&#34;r&#34;:0.40784314274787903,&#34;g&#34;:0.24705882370471954,&#34;b&#34;:0.97647058963775635,&#34;a&#34;:1.0},&#34;position&#34;:0.55055218935012817},{&#34;color&#34;:{&#34;r&#34;:0.21568627655506134,&#34;g&#34;:0.35294118523597717,&#34;b&#34;:0.98039215803146362,&#34;a&#34;:1.0},&#34;position&#34;:0.65419042110443115},{&#34;color&#34;:{&#34;r&#34;:0.36661607027053833,&#34;g&#34;:0.49991825222969055,&#34;b&#34;:0.97921907901763916,&#34;a&#34;:1.0},&#34;position&#34;:0.76397085189819336},{&#34;color&#34;:{&#34;r&#34;:0.34901961684226990,&#34;g&#34;:0.60784316062927246,&#34;b&#34;:0.98039215803146362,&#34;a&#34;:1.0},&#34;position&#34;:0.87505477666854858},{&#34;color&#34;:{&#34;r&#34;:0.50196081399917603,&#34;g&#34;:0.76862746477127075,&#34;b&#34;:0.53725492954254150,&#34;a&#34;:1.0},&#34;position&#34;:0.94620835781097412}],&#34;transform&#34;:{&#34;m00&#34;:-55.066669464111328,&#34;m01&#34;:-16.225124359130859,&#34;m02&#34;:65.145896911621094,&#34;m10&#34;:14.445535659790039,&#34;m11&#34;:-59.282699584960938,&#34;m12&#34;:53.918575286865234},&#34;opacity&#34;:1.0,&#34;blendMode&#34;:&#34;NORMAL&#34;,&#34;visible&#34;:true}"/>
<g clip-path="url(#paint1_angular_25_2166_clip_path)" data-figma-skip-parse="true"><g transform="matrix(-0.0131767 0.0150652 -0.0170765 -0.0147821 30.8767 30.9131)"><foreignObject x="-2292.31" y="-2292.31" width="4584.61" height="4584.61"><div xmlns="http://www.w3.org/1999/xhtml" style="background:conic-gradient(from 90deg,rgba(160, 202, 69, 1) 0deg,rgba(160, 201, 70, 1) 0.766082deg,rgba(144, 199, 103, 1) 19.7409deg,rgba(128, 196, 137, 1) 37.9048deg,rgba(89, 155, 250, 1) 61.5155deg,rgba(93, 127, 249, 1) 84.9705deg,rgba(55, 90, 250, 1) 120.717deg,rgba(104, 63, 249, 1) 157.735deg,rgba(218, 63, 56, 1) 191.819deg,rgba(224, 113, 44, 1) 226.077deg,rgba(235, 179, 41, 1) 260.089deg,rgba(216, 216, 54, 1) 289.029deg,rgba(185, 208, 57, 1) 317.436deg,rgba(166, 203, 59, 1) 337.649deg,rgba(160, 202, 69, 1) 360deg);height:100%;width:100%;opacity:1"></div></foreignObject></g></g><path d="M25.9707 23.576C26.4029 23.2103 27.1952 22.9974 27.7905 23.0986L40.5849 25.274C41.6555 25.4561 42.3752 26.4672 42.1922 27.5323C42.0091 28.5973 40.9927 29.3129 39.9221 29.1309L28.5064 27.1899L24.6102 38.0846C24.2461 39.1026 23.1215 39.6343 22.0982 39.2721C21.0749 38.9099 20.5405 37.7911 20.9045 36.7731L25.2557 24.6069C25.4276 24.1265 25.5945 23.8026 25.9707 23.576Z" data-figma-gradient-fill="{&#34;type&#34;:&#34;GRADIENT_ANGULAR&#34;,&#34;stops&#34;:[{&#34;color&#34;:{&#34;r&#34;:0.62957704067230225,&#34;g&#34;:0.79213571548461914,&#34;b&#34;:0.27530574798583984,&#34;a&#34;:1.0},&#34;position&#34;:0.0021280050277709961},{&#34;color&#34;:{&#34;r&#34;:0.56683987379074097,&#34;g&#34;:0.78057885169982910,&#34;b&#34;:0.40408211946487427,&#34;a&#34;:1.0},&#34;position&#34;:0.054835751652717590},{&#34;color&#34;:{&#34;r&#34;:0.50196081399917603,&#34;g&#34;:0.76862746477127075,&#34;b&#34;:0.53725492954254150,&#34;a&#34;:1.0},&#34;position&#34;:0.10529112070798874},{&#34;color&#34;:{&#34;r&#34;:0.34901961684226990,&#34;g&#34;:0.60784316062927246,&#34;b&#34;:0.98039215803146362,&#34;a&#34;:1.0},&#34;position&#34;:0.17087644338607788},{&#34;color&#34;:{&#34;r&#34;:0.36661607027053833,&#34;g&#34;:0.49991825222969055,&#34;b&#34;:0.97921907901763916,&#34;a&#34;:1.0},&#34;position&#34;:0.23602914810180664},{&#34;color&#34;:{&#34;r&#34;:0.21568627655506134,&#34;g&#34;:0.35294118523597717,&#34;b&#34;:0.98039215803146362,&#34;a&#34;:1.0},&#34;position&#34;:0.33532398939132690},{&#34;color&#34;:{&#34;r&#34;:0.40784314274787903,&#34;g&#34;:0.24705882370471954,&#34;b&#34;:0.97647058963775635,&#34;a&#34;:1.0},&#34;position&#34;:0.4381534755229950},{&#34;color&#34;:{&#34;r&#34;:0.85490196943283081,&#34;g&#34;:0.24705882370471954,&#34;b&#34;:0.21960784494876862,&#34;a&#34;:1.0},&#34;position&#34;:0.53283071517944336},{&#34;color&#34;:{&#34;r&#34;:0.87843137979507446,&#34;g&#34;:0.44313725829124451,&#34;b&#34;:0.17254902422428131,&#34;a&#34;:1.0},&#34;position&#34;:0.62799048423767090},{&#34;color&#34;:{&#34;r&#34;:0.92156863212585449,&#34;g&#34;:0.70196080207824707,&#34;b&#34;:0.16078431904315948,&#34;a&#34;:1.0},&#34;position&#34;:0.72246825695037842},{&#34;color&#34;:{&#34;r&#34;:0.84705883264541626,&#34;g&#34;:0.84705883264541626,&#34;b&#34;:0.21176470816135406,&#34;a&#34;:1.0},&#34;position&#34;:0.80285859107971191},{&#34;color&#34;:{&#34;r&#34;:0.72753882408142090,&#34;g&#34;:0.81598365306854248,&#34;b&#34;:0.22371670603752136,&#34;a&#34;:1.0},&#34;position&#34;:0.88176631927490234},{&#34;color&#34;:{&#34;r&#34;:0.65098041296005249,&#34;g&#34;:0.79607844352722168,&#34;b&#34;:0.23137255012989044,&#34;a&#34;:1.0},&#34;position&#34;:0.93791437149047852}],&#34;stopsVar&#34;:[{&#34;color&#34;:{&#34;r&#34;:0.62957704067230225,&#34;g&#34;:0.79213571548461914,&#34;b&#34;:0.27530574798583984,&#34;a&#34;:1.0},&#34;position&#34;:0.0021280050277709961},{&#34;color&#34;:{&#34;r&#34;:0.56683987379074097,&#34;g&#34;:0.78057885169982910,&#34;b&#34;:0.40408211946487427,&#34;a&#34;:1.0},&#34;position&#34;:0.054835751652717590},{&#34;color&#34;:{&#34;r&#34;:0.50196081399917603,&#34;g&#34;:0.76862746477127075,&#34;b&#34;:0.53725492954254150,&#34;a&#34;:1.0},&#34;position&#34;:0.10529112070798874},{&#34;color&#34;:{&#34;r&#34;:0.34901961684226990,&#34;g&#34;:0.60784316062927246,&#34;b&#34;:0.98039215803146362,&#34;a&#34;:1.0},&#34;position&#34;:0.17087644338607788},{&#34;color&#34;:{&#34;r&#34;:0.36661607027053833,&#34;g&#34;:0.49991825222969055,&#34;b&#34;:0.97921907901763916,&#34;a&#34;:1.0},&#34;position&#34;:0.23602914810180664},{&#34;color&#34;:{&#34;r&#34;:0.21568627655506134,&#34;g&#34;:0.35294118523597717,&#34;b&#34;:0.98039215803146362,&#34;a&#34;:1.0},&#34;position&#34;:0.33532398939132690},{&#34;color&#34;:{&#34;r&#34;:0.40784314274787903,&#34;g&#34;:0.24705882370471954,&#34;b&#34;:0.97647058963775635,&#34;a&#34;:1.0},&#34;position&#34;:0.4381534755229950},{&#34;color&#34;:{&#34;r&#34;:0.85490196943283081,&#34;g&#34;:0.24705882370471954,&#34;b&#34;:0.21960784494876862,&#34;a&#34;:1.0},&#34;position&#34;:0.53283071517944336},{&#34;color&#34;:{&#34;r&#34;:0.87843137979507446,&#34;g&#34;:0.44313725829124451,&#34;b&#34;:0.17254902422428131,&#34;a&#34;:1.0},&#34;position&#34;:0.62799048423767090},{&#34;color&#34;:{&#34;r&#34;:0.92156863212585449,&#34;g&#34;:0.70196080207824707,&#34;b&#34;:0.16078431904315948,&#34;a&#34;:1.0},&#34;position&#34;:0.72246825695037842},{&#34;color&#34;:{&#34;r&#34;:0.84705883264541626,&#34;g&#34;:0.84705883264541626,&#34;b&#34;:0.21176470816135406,&#34;a&#34;:1.0},&#34;position&#34;:0.80285859107971191},{&#34;color&#34;:{&#34;r&#34;:0.72753882408142090,&#34;g&#34;:0.81598365306854248,&#34;b&#34;:0.22371670603752136,&#34;a&#34;:1.0},&#34;position&#34;:0.88176631927490234},{&#34;color&#34;:{&#34;r&#34;:0.65098041296005249,&#34;g&#34;:0.79607844352722168,&#34;b&#34;:0.23137255012989044,&#34;a&#34;:1.0},&#34;position&#34;:0.93791437149047852}],&#34;transform&#34;:{&#34;m00&#34;:-26.353332519531250,&#34;m01&#34;:-34.153049468994141,&#34;m02&#34;:61.129913330078125,&#34;m10&#34;:30.130434036254883,&#34;m11&#34;:-29.564289093017578,&#34;m12&#34;:30.629983901977539},&#34;opacity&#34;:1.0,&#34;blendMode&#34;:&#34;NORMAL&#34;,&#34;visible&#34;:true}"/>
<path d="M46 63H293V64H46.4724L46 63Z" fill="url(#paint2_linear_25_2166)"/>
<path d="M64.5109 52.6487C63.5036 51.4863 63 49.865 63 47.7848V38.3017H67.1236V47.2954C67.1236 48.366 67.3754 49.192 67.9105 49.8038C68.4141 50.4156 69.1067 50.6909 69.988 50.6909C71.1527 50.6909 72.097 50.2932 72.7895 49.4367C73.482 48.6108 73.8283 47.5401 73.8283 46.2553V38.3017H77.9519V53.903H74.0801V51.9451H73.8283C73.3247 52.7099 72.6636 53.3217 71.7823 53.75C70.9009 54.1783 69.9566 54.3924 68.9178 54.3924C66.9662 54.3924 65.5182 53.8112 64.5109 52.6487Z" fill="#4285F4"/>
<path d="M82.5397 52.9546C81.438 51.9757 80.9029 50.7215 80.9029 49.1308C80.9029 48.0907 81.1862 47.173 81.7528 46.3776C82.3194 45.5823 83.0748 44.9705 84.0821 44.5422C85.0579 44.1139 86.1597 43.8998 87.3558 43.8998C88.9926 43.8998 90.4091 44.1445 91.6053 44.6034V43.9304C91.6053 43.0738 91.259 42.4008 90.598 41.8502C89.937 41.3302 89.0556 41.0549 87.9539 41.0549C87.1984 41.0549 86.4429 41.2384 85.7504 41.5749C85.0579 41.9114 84.4599 42.3397 84.0192 42.8903L81.3751 40.8713C82.1305 39.8924 83.1063 39.1582 84.3025 38.6076C85.4671 38.0876 86.7577 37.8122 88.1427 37.8122C90.598 37.8122 92.4552 38.3629 93.7458 39.4641C95.0049 40.5654 95.6659 42.1867 95.6659 44.2975V53.903H91.6053V52.3122H91.3535C90.8498 52.9241 90.2203 53.4441 89.4333 53.8112C88.6464 54.2089 87.7335 54.3924 86.7262 54.3924C85.0265 54.3924 83.61 53.9335 82.5397 52.9546ZM90.535 50.1709C91.2275 49.4367 91.6053 48.5496 91.6053 47.5401C90.535 47.0506 89.4018 46.8059 88.2372 46.8059C86.0967 46.8059 85.0265 47.6013 85.0265 49.1308C85.0265 49.7732 85.2468 50.2932 85.719 50.6909C86.1597 51.0886 86.8207 51.2722 87.7021 51.2722C88.8982 51.2722 89.8425 50.9051 90.535 50.1709Z" fill="#4285F4"/>
<path d="M99.4604 38.3017H103.332V40.2595H103.584C104.056 39.5253 104.749 38.9135 105.63 38.4852C106.511 38.057 107.456 37.8122 108.494 37.8122C110.415 37.8122 111.894 38.3935 112.901 39.5253C113.909 40.6878 114.412 42.2479 114.412 44.2057V53.903H110.289V44.6951C110.289 43.7162 110.005 42.9209 109.502 42.3703C108.967 41.8196 108.243 41.5443 107.298 41.5443C106.165 41.5443 105.284 41.9726 104.591 42.7985C103.899 43.6551 103.584 44.6951 103.584 45.9494V53.903H99.4604V38.3017Z" fill="#4285F4"/>
<path d="M120.48 59.6846C119.126 58.7975 118.213 57.7268 117.773 56.4726L121.644 54.943C121.959 55.7384 122.494 56.3502 123.187 56.7785C123.879 57.2373 124.666 57.4515 125.547 57.4515C126.838 57.4515 127.877 57.0844 128.632 56.289C129.388 55.5243 129.797 54.423 129.797 52.9852V51.7616H129.545C129.041 52.4652 128.38 52.9852 127.562 53.3523C126.744 53.7194 125.799 53.903 124.761 53.903C123.438 53.903 122.179 53.597 121.046 52.924C119.913 52.2511 119 51.3333 118.308 50.1097C117.615 48.8861 117.269 47.4789 117.269 45.8576C117.269 44.2669 117.615 42.8597 118.308 41.6361C119 40.4124 119.913 39.4947 121.046 38.8217C122.179 38.1487 123.438 37.8122 124.761 37.8122C125.799 37.8122 126.744 37.9958 127.562 38.3629C128.38 38.73 129.041 39.2806 129.545 39.9536H129.797V38.3017H133.763V52.8323C133.763 54.5148 133.417 55.9525 132.756 57.1762C132.063 58.3998 131.119 59.3481 129.891 60.0211C128.632 60.6941 127.184 61 125.547 61C123.501 61 121.802 60.5717 120.48 59.6846ZM128.569 49.1002C129.388 48.3049 129.797 47.2342 129.797 45.8576C129.797 44.4504 129.388 43.3797 128.569 42.615C127.751 41.8502 126.775 41.4525 125.61 41.4525C124.414 41.4525 123.438 41.8502 122.62 42.615C121.802 43.4103 121.392 44.481 121.392 45.8576C121.392 47.2648 121.802 48.3354 122.62 49.1002C123.438 49.8956 124.414 50.2627 125.61 50.2627C126.744 50.2627 127.751 49.8956 128.569 49.1002Z" fill="#4285F4"/>
<path d="M143.805 53.7194C142.955 53.2911 142.326 52.7099 141.917 52.0369H141.665V53.903H137.793V32H141.917V37.9958L141.665 40.1983H141.917C142.357 39.5253 142.987 38.9747 143.837 38.5158C144.655 38.057 145.631 37.8122 146.733 37.8122C148.181 37.8122 149.471 38.1793 150.667 38.8829C151.864 39.5865 152.776 40.5654 153.469 41.8196C154.13 43.1044 154.476 44.5116 154.476 46.1023C154.476 47.7236 154.13 49.1614 153.469 50.4156C152.776 51.6698 151.864 52.6487 150.667 53.3523C149.471 54.0559 148.181 54.3924 146.733 54.3924C145.631 54.3924 144.655 54.1783 143.805 53.7194ZM148.181 50.1097C148.842 49.7426 149.377 49.192 149.786 48.4884C150.164 47.8154 150.384 47.02 150.384 46.1023C150.384 45.2152 150.164 44.4198 149.786 43.7162C149.377 43.0432 148.842 42.4926 148.181 42.1255C147.488 41.7584 146.764 41.5443 146.009 41.5443C145.253 41.5443 144.529 41.7584 143.868 42.1255C143.176 42.4926 142.641 43.0432 142.263 43.7162C141.854 44.4198 141.665 45.2152 141.665 46.1023C141.665 47.02 141.854 47.8154 142.263 48.4884C142.641 49.192 143.176 49.7426 143.868 50.1097C144.529 50.5074 145.253 50.6909 146.009 50.6909C146.764 50.6909 147.488 50.5074 148.181 50.1097Z" fill="#4285F4"/>
<path d="M158.375 52.9546C157.273 51.9757 156.738 50.7215 156.738 49.1308C156.738 48.0907 157.021 47.173 157.588 46.3776C158.155 45.5823 158.91 44.9705 159.917 44.5422C160.893 44.1139 161.995 43.8998 163.191 43.8998C164.828 43.8998 166.244 44.1445 167.44 44.6034V43.9304C167.44 43.0738 167.094 42.4008 166.433 41.8502C165.772 41.3302 164.891 41.0549 163.789 41.0549C163.034 41.0549 162.278 41.2384 161.586 41.5749C160.893 41.9114 160.295 42.3397 159.854 42.8903L157.21 40.8713C157.966 39.8924 158.942 39.1582 160.138 38.6076C161.302 38.0876 162.593 37.8122 163.978 37.8122C166.433 37.8122 168.29 38.3629 169.581 39.4641C170.84 40.5654 171.501 42.1867 171.501 44.2975V53.903H167.44V52.3122H167.189C166.685 52.9241 166.055 53.4441 165.269 53.8112C164.482 54.2089 163.569 54.3924 162.561 54.3924C160.862 54.3924 159.445 53.9335 158.375 52.9546ZM166.37 50.1709C167.063 49.4367 167.44 48.5496 167.44 47.5401C166.37 47.0506 165.237 46.8059 164.072 46.8059C161.932 46.8059 160.862 47.6013 160.862 49.1308C160.862 49.7732 161.082 50.2932 161.554 50.6909C161.995 51.0886 162.656 51.2722 163.537 51.2722C164.733 51.2722 165.678 50.9051 166.37 50.1709Z" fill="#4285F4"/>
<path d="M175.862 32H183.795C185.211 32 186.502 32.3059 187.698 32.8871C188.862 33.4684 189.775 34.2943 190.468 35.3344C191.129 36.3745 191.475 37.5675 191.475 38.9135C191.475 40.2595 191.129 41.4831 190.468 42.5232C189.775 43.5939 188.862 44.4198 187.698 45.0011C186.502 45.5823 185.211 45.8576 183.795 45.8576H180.112V53.903H175.862V32ZM183.92 41.942C184.959 41.942 185.778 41.6667 186.376 41.0549C186.974 40.4736 187.289 39.77 187.289 38.9135C187.289 38.0876 186.974 37.384 186.376 36.8027C185.778 36.2215 184.959 35.9156 183.92 35.9156H180.112V41.942H183.92Z" fill="#FBBC05"/>
<path d="M194.508 38.3017H198.38V40.3819H198.632C199.009 39.6477 199.639 39.0665 200.489 38.577C201.307 38.0876 202.252 37.8428 203.259 37.8428C203.983 37.8428 204.644 37.9652 205.273 38.1793V42.1867C204.707 42.0032 204.203 41.8502 203.825 41.7584C203.448 41.6667 203.038 41.6055 202.598 41.6055C201.37 41.6055 200.394 42.0338 199.702 42.8903C198.978 43.7468 198.632 44.8481 198.632 46.1329V53.903H194.508V38.3017Z" fill="#FBBC05"/>
<path d="M210.231 53.3217C208.909 52.5876 207.901 51.6086 207.177 50.3544C206.453 49.1002 206.107 47.693 206.107 46.1023C206.107 44.5728 206.453 43.1656 207.177 41.8808C207.901 40.6266 208.909 39.6477 210.231 38.9135C211.521 38.1793 213.001 37.8122 214.669 37.8122C216.306 37.8122 217.754 38.1793 219.076 38.9135C220.366 39.6477 221.374 40.6266 222.098 41.8808C222.822 43.1656 223.199 44.5728 223.199 46.1023C223.199 47.693 222.822 49.1002 222.098 50.3544C221.374 51.6086 220.366 52.5876 219.076 53.3217C217.754 54.0559 216.306 54.3924 214.669 54.3924C213.001 54.3924 211.521 54.0559 210.231 53.3217ZM216.872 50.1403C217.533 49.7732 218.069 49.2532 218.478 48.5496C218.855 47.8766 219.076 47.0506 219.076 46.1023C219.076 45.1846 218.855 44.3892 218.478 43.6857C218.069 43.0127 217.533 42.462 216.872 42.0949C216.18 41.7278 215.456 41.5443 214.669 41.5443C213.851 41.5443 213.127 41.7278 212.466 42.0949C211.773 42.462 211.238 43.0127 210.829 43.6857C210.419 44.3892 210.231 45.1846 210.231 46.1023C210.231 47.02 210.419 47.846 210.829 48.5496C211.238 49.2532 211.773 49.7732 212.466 50.1403C213.127 50.5074 213.851 50.6909 214.669 50.6909C215.456 50.6909 216.18 50.5074 216.872 50.1403Z" fill="#FBBC05"/>
<path d="M226.638 53.5359C226.26 53.1688 226.071 52.6793 226.071 52.1287C226.071 51.6087 226.26 51.1498 226.638 50.7827C227.016 50.4156 227.519 50.2015 228.086 50.2015C228.652 50.2015 229.125 50.4156 229.502 50.7827C229.88 51.1498 230.1 51.6087 230.1 52.1287C230.1 52.6793 229.88 53.1688 229.502 53.5359C229.125 53.903 228.652 54.0865 228.086 54.0865C227.519 54.0865 227.016 53.903 226.638 53.5359Z" fill="#4285F4"/>
<path d="M236.908 53.3217C235.649 52.5876 234.705 51.6086 234.012 50.3544C233.32 49.1002 232.974 47.693 232.974 46.1023C232.974 44.5422 233.32 43.135 234.012 41.8502C234.705 40.596 235.649 39.6171 236.908 38.8829C238.136 38.1793 239.521 37.8122 241.095 37.8122C242.826 37.8122 244.274 38.2099 245.47 39.0053C246.666 39.8006 247.516 40.8407 248.02 42.1255L245.596 43.1044C245.187 42.1561 244.589 41.4219 243.802 40.9325C243.015 40.443 242.071 40.1677 240.969 40.1677C240.025 40.1677 239.143 40.443 238.325 40.9325C237.506 41.4219 236.845 42.1255 236.342 43.0127C235.838 43.9304 235.618 44.9399 235.618 46.1023C235.618 47.2648 235.838 48.3049 236.342 49.192C236.845 50.1097 237.506 50.8133 238.325 51.3027C239.143 51.7922 240.025 52.0369 240.969 52.0369C242.102 52.0369 243.078 51.7922 243.896 51.2722C244.715 50.7827 245.313 50.0485 245.722 49.1002L248.114 50.0791C247.548 51.3639 246.666 52.404 245.47 53.1994C244.274 53.9947 242.795 54.3924 241.095 54.3924C239.521 54.3924 238.136 54.0559 236.908 53.3217Z" fill="#4285F4"/>
<path d="M254.001 53.2911C252.742 52.557 251.735 51.5781 251.042 50.2932C250.35 49.039 250.004 47.6319 250.004 46.1023C250.004 44.5728 250.35 43.1962 251.042 41.9114C251.735 40.6572 252.742 39.6477 254.001 38.9135C255.26 38.1793 256.677 37.8122 258.251 37.8122C259.825 37.8122 261.241 38.1793 262.5 38.9135C263.759 39.6477 264.735 40.6572 265.428 41.9114C266.12 43.1962 266.498 44.5728 266.498 46.1023C266.498 47.6319 266.12 49.039 265.428 50.2932C264.735 51.5781 263.759 52.557 262.5 53.2911C261.241 54.0253 259.825 54.3924 258.251 54.3924C256.677 54.3924 255.26 54.0253 254.001 53.2911ZM260.989 51.3333C261.839 50.8439 262.532 50.1709 263.035 49.2532C263.539 48.366 263.822 47.3259 263.822 46.1023C263.822 44.9093 263.539 43.8692 263.035 42.9515C262.532 42.0643 261.839 41.3913 260.989 40.9019C260.139 40.4124 259.227 40.1677 258.251 40.1677C257.243 40.1677 256.331 40.4124 255.481 40.9019C254.599 41.3913 253.907 42.0643 253.403 42.9515C252.899 43.8692 252.648 44.9093 252.648 46.1023C252.648 47.3259 252.899 48.366 253.403 49.2532C253.907 50.1709 254.599 50.8439 255.481 51.3333C256.331 51.8228 257.243 52.0369 258.251 52.0369C259.227 52.0369 260.139 51.8228 260.989 51.3333Z" fill="#4285F4"/>
<path d="M269.297 38.3017H271.847V40.596H271.973C272.414 39.8006 273.106 39.1582 274.05 38.6076C274.963 38.0876 275.939 37.8122 276.978 37.8122C278.143 37.8122 279.15 38.0876 280.031 38.6382C280.913 39.1888 281.542 39.923 281.92 40.8407C282.486 39.923 283.21 39.1888 284.155 38.6382C285.099 38.0876 286.169 37.8122 287.428 37.8122C289.254 37.8122 290.639 38.3629 291.584 39.4641C292.528 40.5654 293 42.0338 293 43.8998V53.903H290.356V44.2975C290.356 42.8597 290.041 41.8196 289.443 41.1466C288.813 40.5042 287.932 40.1677 286.736 40.1677C285.918 40.1677 285.194 40.4124 284.564 40.8407C283.903 41.2996 283.399 41.9114 283.022 42.6456C282.644 43.4103 282.486 44.2363 282.486 45.0928V53.903H279.811V44.3281C279.811 42.8597 279.496 41.8196 278.898 41.1466C278.268 40.5042 277.387 40.1677 276.222 40.1677C275.404 40.1677 274.68 40.4124 274.05 40.8713C273.389 41.3302 272.886 41.942 272.508 42.7068C272.13 43.4715 271.973 44.2975 271.973 45.154V53.903H269.297V38.3017Z" fill="#4285F4"/>
<defs>
<clipPath id="paint0_angular_25_2166_clip_path"><path d="M41.7259 56.4556C37.7821 58.1902 33.6805 58.9787 29.5 58.9787C23.9786 58.9787 18.9305 57.7172 14.4345 55.1151C9.9385 52.5131 6.38904 48.965 3.86497 44.3917C1.26203 39.8974 0 34.9299 0 29.4894C0 24.1277 1.26203 19.1602 3.86497 14.587C6.38904 10.0926 9.9385 6.54443 14.4345 3.94243C18.9305 1.34043 23.9786 0 29.5 0C35.0214 0 39.9906 1.34043 44.4866 3.94243C48.9826 6.54443 52.5321 10.0926 55.135 14.587C57.6591 19.1602 59 24.1277 59 29.4894C59 33.826 58.1324 37.8473 56.5548 41.5532C54.8984 45.3379 52.611 48.5707 49.6925 51.2516L58.2133 63H46.1431L41.7259 56.4556ZM35.889 47.7034L29.7366 38.4781C29.7366 38.4781 28.5167 34.7072 32.0567 32.6739C35.5967 30.6406 37.6243 33.1164 37.6243 33.1164L43.7767 42.4205C45.1965 40.8436 46.3797 38.8723 47.1685 36.6646C47.9572 34.4568 48.3516 32.0914 48.3516 29.4894C48.3516 25.7046 47.484 22.393 45.8275 19.3967C44.1711 16.4794 41.8837 14.1927 39.0441 12.5369C36.1257 10.9599 32.9706 10.0926 29.5 10.0926C26.0294 10.0926 22.7955 10.9599 19.9559 12.5369C17.1163 14.1927 14.8289 16.4794 13.1725 19.3967C11.516 22.393 10.7273 25.7046 10.7273 29.4894C10.7273 33.2741 11.516 36.6646 13.1725 39.582C14.8289 42.5782 17.1163 44.8648 19.9559 46.4418C22.7955 48.0976 26.0294 48.8861 29.5 48.8861C31.5508 48.8861 33.6805 48.4919 35.889 47.7034Z"/></clipPath><clipPath id="paint1_angular_25_2166_clip_path"><path d="M25.9707 23.576C26.4029 23.2103 27.1952 22.9974 27.7905 23.0986L40.5849 25.274C41.6555 25.4561 42.3752 26.4672 42.1922 27.5323C42.0091 28.5973 40.9927 29.3129 39.9221 29.1309L28.5064 27.1899L24.6102 38.0846C24.2461 39.1026 23.1215 39.6343 22.0982 39.2721C21.0749 38.9099 20.5405 37.7911 20.9045 36.7731L25.2557 24.6069C25.4276 24.1265 25.5945 23.8026 25.9707 23.576Z"/></clipPath><linearGradient id="paint2_linear_25_2166" x1="46" y1="63.5" x2="293" y2="63.5" gradientUnits="userSpaceOnUse">
<stop stop-color="#4B6DF9"/>
<stop offset="0.0489438" stop-color="#3C5FF9"/>
<stop offset="1" stop-color="#3C5FF9"/>
</linearGradient>
</defs>
</svg>
