<svg width="36" height="36" viewBox="0 0 36 36" fill="none" xmlns="http://www.w3.org/2000/svg">
<path d="M21 18.3H20.25V19.05H21V18.3ZM25.35 18.9L26.0839 19.0545L26.1 18.9781V18.9H25.35ZM24.75 21.75L24.0161 21.5955L24 21.6719V21.75H24.75ZM21 22.05V21.3H20.25V22.05H21ZM21 33V33.75H21.75V33H21ZM16.5 33H15.75V33.75H16.5V33ZM16.5 22.2H17.25V21.45H16.5V22.2ZM16.5 18.45V19.2H17.25V18.45H16.5ZM21 13.95H20.25V18.3H21H21.75V13.95H21ZM21 18.3V19.05H24.9V18.3V17.55H21V18.3ZM24.9 18.3V19.05C24.8446 19.05 24.7795 19.0347 24.719 18.9994C24.6618 18.9661 24.6291 18.9269 24.6135 18.9035C24.588 18.8654 24.6 18.8613 24.6 18.9H25.35H26.1C26.1 18.6387 26.037 18.3346 25.8615 18.0715C25.6713 17.7861 25.3409 17.55 24.9 17.55V18.3ZM25.35 18.9L24.6161 18.7455L24.0161 21.5955L24.75 21.75L25.4839 21.9045L26.0839 19.0545L25.35 18.9ZM24.75 21.75H24C24 21.5357 24.1034 21.4043 24.134 21.369C24.1544 21.3454 24.1712 21.3311 24.1797 21.3244C24.1886 21.3172 24.1942 21.3139 24.1954 21.3131C24.1962 21.3126 24.1946 21.3133 24.1964 21.3127C24.1981 21.3122 24.2055 21.3097 24.219 21.3071C24.231 21.3048 24.2592 21.3 24.3 21.3V22.05V22.8C24.5594 22.8 24.8069 22.6955 24.9671 22.5994C25.0579 22.5449 25.1696 22.4644 25.2675 22.3514C25.3591 22.2457 25.5 22.0393 25.5 21.75H24.75ZM24.3 22.05V21.3H21V22.05V22.8H24.3V22.05ZM21 22.05H20.25V33H21H21.75V22.05H21ZM21 33V32.25H16.5V33V33.75H21V33ZM16.5 33H17.25V22.2H16.5H15.75V33H16.5ZM16.5 22.2V21.45H13.95V22.2V22.95H16.5V22.2ZM13.95 22.2V21.45C13.9156 21.45 14.0276 21.4419 14.1428 21.5572C14.2581 21.6724 14.25 21.7844 14.25 21.75H13.5H12.75C12.75 22.0156 12.8169 22.3526 13.0822 22.6178C13.3474 22.8831 13.6844 22.95 13.95 22.95V22.2ZM13.5 21.75H14.25V18.9H13.5H12.75V21.75H13.5ZM13.5 18.9H14.25C14.25 18.8656 14.2581 18.9776 14.1428 19.0928C14.0276 19.2081 13.9156 19.2 13.95 19.2V18.45V17.7C13.6844 17.7 13.3474 17.7669 13.0822 18.0322C12.8169 18.2974 12.75 18.6344 12.75 18.9H13.5ZM13.95 18.45V19.2H16.5V18.45V17.7H13.95V18.45ZM16.5 18.45H17.25V13.5H16.5H15.75V18.45H16.5ZM16.5 13.5H17.25C17.25 11.3642 18.8642 9.75 21 9.75V9V8.25C18.0358 8.25 15.75 10.5358 15.75 13.5H16.5ZM21 9V9.75H25.05V9V8.25H21V9ZM25.05 9V9.75C25.0844 9.75 24.9724 9.75809 24.8572 9.64283C24.7419 9.52757 24.75 9.41561 24.75 9.45H25.5H26.25C26.25 9.18439 26.1831 8.84743 25.9178 8.58217C25.6526 8.31691 25.3156 8.25 25.05 8.25V9ZM25.5 9.45H24.75V13.05H25.5H26.25V9.45H25.5ZM25.5 13.05H24.75C24.75 13.0844 24.7419 12.9724 24.8572 12.8572C24.9724 12.7419 25.0844 12.75 25.05 12.75V13.5V14.25C25.3156 14.25 25.6526 14.1831 25.9178 13.9178C26.1831 13.6526 26.25 13.3156 26.25 13.05H25.5ZM25.05 13.5V12.75H21.45V13.5V14.25H25.05V13.5ZM21.45 13.5V12.75C21.1844 12.75 20.8474 12.8169 20.5822 13.0822C20.3169 13.3474 20.25 13.6844 20.25 13.95H21H21.75C21.75 13.9156 21.7581 14.0276 21.6428 14.1428C21.5276 14.2581 21.4156 14.25 21.45 14.25V13.5ZM22.5 33V32.25H13.5V33V33.75H22.5V33ZM13.5 33V32.25C9.82397 32.25 7.44586 31.5102 5.96783 30.0322C4.4898 28.5541 3.75 26.176 3.75 22.5H3H2.25C2.25 26.324 3.0102 29.1959 4.90717 31.0928C6.80414 32.9898 9.67603 33.75 13.5 33.75V33ZM3 22.5H3.75V13.5H3H2.25V22.5H3ZM3 13.5H3.75C3.75 9.82397 4.4898 7.44586 5.96783 5.96783C7.44586 4.4898 9.82397 3.75 13.5 3.75V3V2.25C9.67603 2.25 6.80414 3.0102 4.90717 4.90717C3.0102 6.80414 2.25 9.67603 2.25 13.5H3ZM13.5 3V3.75H22.5V3V2.25H13.5V3ZM22.5 3V3.75C26.176 3.75 28.5541 4.4898 30.0322 5.96783C31.5102 7.44586 32.25 9.82397 32.25 13.5H33H33.75C33.75 9.67603 32.9898 6.80414 31.0928 4.90717C29.1959 3.0102 26.324 2.25 22.5 2.25V3ZM33 13.5H32.25V22.5H33H33.75V13.5H33ZM33 22.5H32.25C32.25 26.176 31.5102 28.5541 30.0322 30.0322C28.5541 31.5102 26.176 32.25 22.5 32.25V33V33.75C26.324 33.75 29.1959 32.9898 31.0928 31.0928C32.9898 29.1959 33.75 26.324 33.75 22.5H33Z" fill="#035CA8"/>
</svg>
