<svg width="72" height="72" viewBox="0 0 72 72" fill="none" xmlns="http://www.w3.org/2000/svg">
<circle cx="36" cy="36" r="36" fill="white"/>
<path d="M43.3499 22.6668C46.5832 22.6668 49.1832 25.2835 49.1832 28.5002C49.1832 31.6502 46.6832 34.2168 43.5665 34.3335C43.4332 34.3168 43.2832 34.3168 43.1332 34.3335M46.5665 49.3335C47.7665 49.0835 48.8999 48.6002 49.8332 47.8835C52.4332 45.9335 52.4332 42.7168 49.8332 40.7668C48.9165 40.0668 47.7999 39.6002 46.6165 39.3335M31.2665 34.1168C31.0999 34.1002 30.8999 34.1002 30.7165 34.1168C26.7499 33.9835 23.5999 30.7335 23.5999 26.7335C23.5999 22.6502 26.8999 19.3335 30.9999 19.3335C35.0832 19.3335 38.3999 22.6502 38.3999 26.7335C38.3832 30.7335 35.2332 33.9835 31.2665 34.1168ZM22.9332 40.2668C18.8999 42.9668 18.8999 47.3668 22.9332 50.0502C27.5165 53.1168 35.0332 53.1168 39.6165 50.0502C43.6499 47.3502 43.6499 42.9502 39.6165 40.2668C35.0499 37.2168 27.5332 37.2168 22.9332 40.2668Z" stroke="#4285F4" stroke-width="1.5" stroke-linecap="round" stroke-linejoin="round"/>
</svg>
