<svg width="72" height="72" viewBox="0 0 72 72" fill="none" xmlns="http://www.w3.org/2000/svg">
<circle cx="36" cy="36" r="36" fill="white"/>
<path d="M52.6673 34.3335V31.0002C52.6673 22.6668 49.334 19.3335 41.0007 19.3335H31.0007C22.6673 19.3335 19.334 22.6668 19.334 31.0002V41.0002C19.334 49.3335 22.6673 52.6668 31.0007 52.6668H32.6673M19.384 30.1668H52.6673M19.384 41.8335H36.0007M30.184 52.6501V19.3502M41.8507 35.9835V19.3502M46.234 41.4335C46.8173 43.5335 48.4673 45.1668 50.5673 45.7668M47.2173 40.4503L40.3007 47.3668C40.034 47.6335 39.7839 48.1502 39.7173 48.5169L39.334 51.1669C39.2006 52.1169 39.8673 52.8002 40.8173 52.6502L43.4673 52.2669C43.8339 52.2169 44.3506 51.9503 44.6173 51.6836L51.534 44.7669C52.7173 43.5836 53.284 42.1836 51.534 40.4336C49.8007 38.7003 48.4173 39.2503 47.2173 40.4503Z" stroke="#4285F4" stroke-width="1.5" stroke-miterlimit="10" stroke-linecap="round" stroke-linejoin="round"/>
</svg>
