<svg width="72" height="72" viewBox="0 0 72 72" fill="none" xmlns="http://www.w3.org/2000/svg">
<circle cx="36" cy="36" r="36" fill="white"/>
<path d="M31.834 38.9166C31.834 40.5333 33.084 41.8333 34.6173 41.8333H37.7506C39.084 41.8333 40.1673 40.6999 40.1673 39.2833C40.1673 37.7666 39.5007 37.2166 38.5173 36.8666L33.5007 35.1166C32.5173 34.7666 31.8507 34.2333 31.8507 32.6999C31.8507 31.2999 32.934 30.1499 34.2673 30.1499H37.4006C38.934 30.1499 40.184 31.4499 40.184 33.0666M36.0007 28.4999V43.4999M52.6673 35.9999C52.6673 45.1999 45.2007 52.6666 36.0007 52.6666C26.8007 52.6666 19.334 45.1999 19.334 35.9999C19.334 26.7999 26.8007 19.3333 36.0007 19.3333M44.334 20.9999V27.6666M44.334 27.6666H51.0007M44.334 27.6666L52.6673 19.3333" stroke="#4285F4" stroke-width="1.5" stroke-linecap="round" stroke-linejoin="round"/>
</svg>
