<svg width="22" height="22" viewBox="0 0 22 22" fill="none" xmlns="http://www.w3.org/2000/svg">
<path d="M20.75 10.75C20.75 5.23 16.27 0.75 10.75 0.75C5.23 0.75 0.75 5.23 0.75 10.75C0.75 16.27 5.23 20.75 10.75 20.75M6.75001 1.75H7.75001C5.80001 7.59 5.80001 13.91 7.75001 19.75H6.75001M13.75 1.75C14.72 4.67 15.21 7.71 15.21 10.75M1.75 14.75V13.75C4.67 14.72 7.71 15.21 10.75 15.21M1.75 7.74998C7.59 5.79998 13.91 5.79998 19.75 7.74998M20.75 20.75L19.75 19.75M20.15 16.95C20.15 18.7173 18.7173 20.15 16.95 20.15C15.1827 20.15 13.75 18.7173 13.75 16.95C13.75 15.1827 15.1827 13.75 16.95 13.75C18.7173 13.75 20.15 15.1827 20.15 16.95Z" stroke="#4285F4" stroke-width="1.5" stroke-linecap="round" stroke-linejoin="round"/>
</svg>
