<svg width="36" height="36" viewBox="0 0 36 36" fill="none" xmlns="http://www.w3.org/2000/svg">
<path d="M5.0625 4.4375H30.9375C31.2836 4.4375 31.5625 4.71638 31.5625 5.0625V30.9375C31.5625 31.2836 31.2836 31.5625 30.9375 31.5625H5.0625C4.71638 31.5625 4.4375 31.2836 4.4375 30.9375V5.0625C4.4375 4.71638 4.71638 4.4375 5.0625 4.4375ZM7.60742 28.4033H12.7803V13.9805H7.60742V28.4033ZM22.9004 13.6465C21.3906 13.6466 20.2036 14.2116 19.3965 14.9521V13.9805H14.3955V28.4033H19.5615V21.2627C19.5615 20.3968 19.649 19.6478 19.9375 19.125C20.0753 18.8753 20.2571 18.6819 20.501 18.5469C20.7476 18.4103 21.0875 18.3174 21.5645 18.3174C22.0199 18.3174 22.3175 18.4229 22.5205 18.5645C22.7245 18.7068 22.8764 18.9158 22.9873 19.1963C23.2204 19.7861 23.2344 20.5741 23.2344 21.375V28.4033H28.4033V20.542C28.4033 18.7242 28.2139 16.9988 27.4102 15.7227C26.5729 14.3935 25.1365 13.6465 22.9004 13.6465ZM11.3125 7.53027C10.7792 7.30937 10.1921 7.25166 9.62598 7.36426C9.05988 7.47686 8.54 7.755 8.13184 8.16309C7.72373 8.57119 7.44568 9.09119 7.33301 9.65723C7.22039 10.2234 7.27812 10.8104 7.49902 11.3438C7.71994 11.8771 8.09423 12.3326 8.57422 12.6533C9.05418 12.974 9.61808 13.1455 10.1953 13.1455C11.8045 13.1455 13.1099 11.8387 13.1143 10.2285V10.2266C13.1142 9.64943 12.9427 9.08534 12.6221 8.60547C12.3014 8.12553 11.8458 7.7512 11.3125 7.53027Z" fill="#1A92C1" stroke="#1A92C1"/>
</svg>
