<svg width="24" height="24" viewBox="0 0 24 24" fill="none" xmlns="http://www.w3.org/2000/svg">
<path d="M22 8.00008V13.0001C22 17.0001 20 19.0001 16 19.0001H15.5C15.19 19.0001 14.89 19.1501 14.7 19.4001L13.2 21.4001C12.54 22.2801 11.46 22.2801 10.8 21.4001L9.3 19.4001C9.14 19.1801 8.77 19.0001 8.5 19.0001H8C4 19.0001 2 18.0001 2 13.0001V8.00008C2 4.00008 4 2.00008 8 2.00008H12M15.9965 11.0001H16.0054M11.9955 11.0001H12.0045M7.99451 11.0001H8.00349M15.2 4.62008C14.87 3.63008 15.26 2.41008 16.34 2.07008C16.9 1.90008 17.6 2.04008 18 2.57008C18.38 2.02008 19.1 1.90008 19.66 2.07008C20.74 2.40008 21.13 3.63008 20.8 4.62008C20.29 6.19008 18.5 7.00008 18 7.00008C17.5 7.00008 15.73 6.20008 15.2 4.62008Z" stroke="#4285F4" stroke-width="1.5" stroke-linecap="round" stroke-linejoin="round"/>
</svg>
