<svg width="24" height="24" viewBox="0 0 24 24" fill="none" xmlns="http://www.w3.org/2000/svg">
<g clip-path="url(#clip0_25_2504)">
<mask id="path-1-inside-1_25_2504" fill="white">
<path d="M23.5 13H19V0.5C19 0.367392 18.9473 0.240215 18.8536 0.146447C18.7598 0.0526784 18.6326 0 18.5 0H0.5C0.367392 0 0.240215 0.0526784 0.146447 0.146447C0.0526784 0.240215 0 0.367392 0 0.5V21C0 21.7956 0.31607 22.5587 0.87868 23.1213C1.44129 23.6839 2.20435 24 3 24H21C21.7956 24 22.5587 23.6839 23.1213 23.1213C23.6839 22.5587 24 21.7956 24 21V13.5C24 13.3674 23.9473 13.2402 23.8536 13.1464C23.7598 13.0527 23.6326 13 23.5 13ZM1 21V1H18V21C18.0017 21.7387 18.2758 22.4509 18.77 23H3C2.46957 23 1.96086 22.7893 1.58579 22.4142C1.21071 22.0391 1 21.5304 1 21ZM23 21C23 21.5304 22.7893 22.0391 22.4142 22.4142C22.0391 22.7893 21.5304 23 21 23C20.4696 23 19.9609 22.7893 19.5858 22.4142C19.2107 22.0391 19 21.5304 19 21V14H23V21ZM2.5 15H11.5C11.6326 15 11.7598 14.9473 11.8536 14.8536C11.9473 14.7598 12 14.6326 12 14.5V2.5C12 2.36739 11.9473 2.24021 11.8536 2.14645C11.7598 2.05268 11.6326 2 11.5 2H2.5C2.36739 2 2.24021 2.05268 2.14645 2.14645C2.05268 2.24021 2 2.36739 2 2.5V14.5C2 14.6326 2.05268 14.7598 2.14645 14.8536C2.24021 14.9473 2.36739 15 2.5 15ZM3 3H11V14H3V3ZM17 2.5C17 2.63261 16.9473 2.75979 16.8536 2.85355C16.7598 2.94732 16.6326 3 16.5 3H13.5C13.3674 3 13.2402 2.94732 13.1464 2.85355C13.0527 2.75979 13 2.63261 13 2.5C13 2.36739 13.0527 2.24021 13.1464 2.14645C13.2402 2.05268 13.3674 2 13.5 2H16.5C16.6326 2 16.7598 2.05268 16.8536 2.14645C16.9473 2.24021 17 2.36739 17 2.5ZM17 5.5C17 5.63261 16.9473 5.75979 16.8536 5.85355C16.7598 5.94732 16.6326 6 16.5 6H13.5C13.3674 6 13.2402 5.94732 13.1464 5.85355C13.0527 5.75979 13 5.63261 13 5.5C13 5.36739 13.0527 5.24021 13.1464 5.14645C13.2402 5.05268 13.3674 5 13.5 5H16.5C16.6326 5 16.7598 5.05268 16.8536 5.14645C16.9473 5.24021 17 5.36739 17 5.5ZM17 8.5C17 8.63261 16.9473 8.75979 16.8536 8.85355C16.7598 8.94732 16.6326 9 16.5 9H13.5C13.3674 9 13.2402 8.94732 13.1464 8.85355C13.0527 8.75979 13 8.63261 13 8.5C13 8.36739 13.0527 8.24021 13.1464 8.14645C13.2402 8.05268 13.3674 8 13.5 8H16.5C16.6326 8 16.7598 8.05268 16.8536 8.14645C16.9473 8.24021 17 8.36739 17 8.5ZM17 11.5C17 11.6326 16.9473 11.7598 16.8536 11.8536C16.7598 11.9473 16.6326 12 16.5 12H13.5C13.3674 12 13.2402 11.9473 13.1464 11.8536C13.0527 11.7598 13 11.6326 13 11.5C13 11.3674 13.0527 11.2402 13.1464 11.1464C13.2402 11.0527 13.3674 11 13.5 11H16.5C16.6326 11 16.7598 11.0527 16.8536 11.1464C16.9473 11.2402 17 11.3674 17 11.5ZM17 14.5C17 14.6326 16.9473 14.7598 16.8536 14.8536C16.7598 14.9473 16.6326 15 16.5 15H13.5C13.3674 15 13.2402 14.9473 13.1464 14.8536C13.0527 14.7598 13 14.6326 13 14.5C13 14.3674 13.0527 14.2402 13.1464 14.1464C13.2402 14.0527 13.3674 14 13.5 14H16.5C16.6326 14 16.7598 14.0527 16.8536 14.1464C16.9473 14.2402 17 14.3674 17 14.5ZM17 17.5C17 17.6326 16.9473 17.7598 16.8536 17.8536C16.7598 17.9473 16.6326 18 16.5 18H2.5C2.36739 18 2.24021 17.9473 2.14645 17.8536C2.05268 17.7598 2 17.6326 2 17.5C2 17.3674 2.05268 17.2402 2.14645 17.1464C2.24021 17.0527 2.36739 17 2.5 17H16.5C16.6326 17 16.7598 17.0527 16.8536 17.1464C16.9473 17.2402 17 17.3674 17 17.5ZM17 20.5C17 20.6326 16.9473 20.7598 16.8536 20.8536C16.7598 20.9473 16.6326 21 16.5 21H2.5C2.36739 21 2.24021 20.9473 2.14645 20.8536C2.05268 20.7598 2 20.6326 2 20.5C2 20.3674 2.05268 20.2402 2.14645 20.1464C2.24021 20.0527 2.36739 20 2.5 20H16.5C16.6326 20 16.7598 20.0527 16.8536 20.1464C16.9473 20.2402 17 20.3674 17 20.5Z"/>
</mask>
<path d="M23.5 13H19V0.5C19 0.367392 18.9473 0.240215 18.8536 0.146447C18.7598 0.0526784 18.6326 0 18.5 0H0.5C0.367392 0 0.240215 0.0526784 0.146447 0.146447C0.0526784 0.240215 0 0.367392 0 0.5V21C0 21.7956 0.31607 22.5587 0.87868 23.1213C1.44129 23.6839 2.20435 24 3 24H21C21.7956 24 22.5587 23.6839 23.1213 23.1213C23.6839 22.5587 24 21.7956 24 21V13.5C24 13.3674 23.9473 13.2402 23.8536 13.1464C23.7598 13.0527 23.6326 13 23.5 13ZM1 21V1H18V21C18.0017 21.7387 18.2758 22.4509 18.77 23H3C2.46957 23 1.96086 22.7893 1.58579 22.4142C1.21071 22.0391 1 21.5304 1 21ZM23 21C23 21.5304 22.7893 22.0391 22.4142 22.4142C22.0391 22.7893 21.5304 23 21 23C20.4696 23 19.9609 22.7893 19.5858 22.4142C19.2107 22.0391 19 21.5304 19 21V14H23V21ZM2.5 15H11.5C11.6326 15 11.7598 14.9473 11.8536 14.8536C11.9473 14.7598 12 14.6326 12 14.5V2.5C12 2.36739 11.9473 2.24021 11.8536 2.14645C11.7598 2.05268 11.6326 2 11.5 2H2.5C2.36739 2 2.24021 2.05268 2.14645 2.14645C2.05268 2.24021 2 2.36739 2 2.5V14.5C2 14.6326 2.05268 14.7598 2.14645 14.8536C2.24021 14.9473 2.36739 15 2.5 15ZM3 3H11V14H3V3ZM17 2.5C17 2.63261 16.9473 2.75979 16.8536 2.85355C16.7598 2.94732 16.6326 3 16.5 3H13.5C13.3674 3 13.2402 2.94732 13.1464 2.85355C13.0527 2.75979 13 2.63261 13 2.5C13 2.36739 13.0527 2.24021 13.1464 2.14645C13.2402 2.05268 13.3674 2 13.5 2H16.5C16.6326 2 16.7598 2.05268 16.8536 2.14645C16.9473 2.24021 17 2.36739 17 2.5ZM17 5.5C17 5.63261 16.9473 5.75979 16.8536 5.85355C16.7598 5.94732 16.6326 6 16.5 6H13.5C13.3674 6 13.2402 5.94732 13.1464 5.85355C13.0527 5.75979 13 5.63261 13 5.5C13 5.36739 13.0527 5.24021 13.1464 5.14645C13.2402 5.05268 13.3674 5 13.5 5H16.5C16.6326 5 16.7598 5.05268 16.8536 5.14645C16.9473 5.24021 17 5.36739 17 5.5ZM17 8.5C17 8.63261 16.9473 8.75979 16.8536 8.85355C16.7598 8.94732 16.6326 9 16.5 9H13.5C13.3674 9 13.2402 8.94732 13.1464 8.85355C13.0527 8.75979 13 8.63261 13 8.5C13 8.36739 13.0527 8.24021 13.1464 8.14645C13.2402 8.05268 13.3674 8 13.5 8H16.5C16.6326 8 16.7598 8.05268 16.8536 8.14645C16.9473 8.24021 17 8.36739 17 8.5ZM17 11.5C17 11.6326 16.9473 11.7598 16.8536 11.8536C16.7598 11.9473 16.6326 12 16.5 12H13.5C13.3674 12 13.2402 11.9473 13.1464 11.8536C13.0527 11.7598 13 11.6326 13 11.5C13 11.3674 13.0527 11.2402 13.1464 11.1464C13.2402 11.0527 13.3674 11 13.5 11H16.5C16.6326 11 16.7598 11.0527 16.8536 11.1464C16.9473 11.2402 17 11.3674 17 11.5ZM17 14.5C17 14.6326 16.9473 14.7598 16.8536 14.8536C16.7598 14.9473 16.6326 15 16.5 15H13.5C13.3674 15 13.2402 14.9473 13.1464 14.8536C13.0527 14.7598 13 14.6326 13 14.5C13 14.3674 13.0527 14.2402 13.1464 14.1464C13.2402 14.0527 13.3674 14 13.5 14H16.5C16.6326 14 16.7598 14.0527 16.8536 14.1464C16.9473 14.2402 17 14.3674 17 14.5ZM17 17.5C17 17.6326 16.9473 17.7598 16.8536 17.8536C16.7598 17.9473 16.6326 18 16.5 18H2.5C2.36739 18 2.24021 17.9473 2.14645 17.8536C2.05268 17.7598 2 17.6326 2 17.5C2 17.3674 2.05268 17.2402 2.14645 17.1464C2.24021 17.0527 2.36739 17 2.5 17H16.5C16.6326 17 16.7598 17.0527 16.8536 17.1464C16.9473 17.2402 17 17.3674 17 17.5ZM17 20.5C17 20.6326 16.9473 20.7598 16.8536 20.8536C16.7598 20.9473 16.6326 21 16.5 21H2.5C2.36739 21 2.24021 20.9473 2.14645 20.8536C2.05268 20.7598 2 20.6326 2 20.5C2 20.3674 2.05268 20.2402 2.14645 20.1464C2.24021 20.0527 2.36739 20 2.5 20H16.5C16.6326 20 16.7598 20.0527 16.8536 20.1464C16.9473 20.2402 17 20.3674 17 20.5Z" fill="#4285F4" stroke="#4285F4" stroke-width="2" mask="url(#path-1-inside-1_25_2504)"/>
</g>
<defs>
<clipPath id="clip0_25_2504">
<rect width="24" height="24" fill="white"/>
</clipPath>
</defs>
</svg>
