<svg width="20" height="22" viewBox="0 0 20 22" fill="none" xmlns="http://www.w3.org/2000/svg">
<path d="M17.75 10.05V5.79001C17.75 1.76001 16.81 0.75 13.03 0.75H5.47C1.69 0.75 0.75 1.76001 0.75 5.79001V17.05C0.75 19.71 2.21001 20.34 3.98001 18.44L3.98999 18.43C4.80999 17.56 6.05999 17.63 6.76999 18.58L7.78 19.93M19.25 20.75L18.25 19.75M5.25 5.75H13.25M6.25 9.75H12.25M18.65 16.95C18.65 18.7173 17.2173 20.15 15.45 20.15C13.6827 20.15 12.25 18.7173 12.25 16.95C12.25 15.1827 13.6827 13.75 15.45 13.75C17.2173 13.75 18.65 15.1827 18.65 16.95Z" stroke="#4285F4" stroke-width="1.5" stroke-linecap="round" stroke-linejoin="round"/>
</svg>
