<svg width="120" height="120" viewBox="0 0 120 120" fill="none" xmlns="http://www.w3.org/2000/svg">
<path d="M117.892 19.8469C117.179 19.14 116.232 18.75 115.226 18.75H62.3871V16.875C62.3871 15.3731 61.7964 13.9594 60.7283 12.8981C59.6602 11.835 58.2374 11.25 56.7258 11.25H45.4032C44.8994 11.25 44.4257 11.055 44.069 10.7006C43.7124 10.3462 43.5161 9.87562 43.5161 9.375C43.5161 8.87438 43.7124 8.40375 44.069 8.04938C44.4257 7.695 44.8994 7.5 45.4032 7.5H68.0484C69.5618 7.5 70.9847 6.91313 72.0528 5.85188C73.1209 4.79063 73.7097 3.375 73.7097 1.875V0H69.9355V1.875C69.9355 2.37562 69.7392 2.84625 69.3807 3.2025C69.0259 3.555 68.5541 3.75 68.0484 3.75H45.4032C43.8917 3.75 42.4688 4.335 41.4007 5.39812C40.3307 6.45937 39.7419 7.87313 39.7419 9.375C39.7419 10.8769 40.3307 12.2906 41.4007 13.3519C42.4688 14.415 43.8917 15 45.4032 15H56.7258C57.2297 15 57.7033 15.195 58.06 15.5494C58.4166 15.9038 58.6129 16.3744 58.6129 16.875V18.75H5.77419C4.76648 18.75 3.81916 19.14 3.10584 19.8488C2.39252 20.5575 2 21.4988 2 22.5V63.75C2 64.7494 2.39252 65.6906 3.10395 66.3994C3.81539 67.11 4.7646 67.5 5.77419 67.5H13.3226V86.5912L18.9839 101.591V105.519C18.7046 105.683 18.4347 105.868 18.2007 106.103C17.4893 106.809 17.0968 107.751 17.0968 108.75V120H20.871V108.75H43.5161V120H47.2903V108.75C47.2903 107.751 46.8978 106.809 46.1864 106.101C45.9505 105.866 45.6825 105.681 45.4032 105.518V102.006C47.5187 99.7744 54.8387 91.5319 54.8387 84.4144V75C54.8387 73.4962 54.248 72.0825 53.18 71.0212C51.642 69.495 49.2888 69.0844 47.2903 69.7519V67.5H73.7097V69.7537C71.7094 69.0863 69.3561 69.495 67.8201 71.0231C66.752 72.0844 66.1613 73.4981 66.1613 75V84.4144C66.1613 91.5319 73.4813 99.7725 75.5968 102.006V105.518C75.3175 105.681 75.0495 105.866 74.8155 106.099C74.1022 106.807 73.7097 107.749 73.7097 108.75V120H77.4839V108.75H100.129V120H103.903V108.75C103.903 107.749 103.511 106.807 102.797 106.099C102.563 105.866 102.295 105.681 102.016 105.518V101.589L107.677 86.5894V67.5H115.226C116.234 67.5 117.181 67.11 117.894 66.4013C118.607 65.6925 119 64.7513 119 63.75V22.5C119 21.4969 118.607 20.5538 117.892 19.8469ZM47.8414 73.6762C48.5566 72.9656 49.7964 72.9656 50.5116 73.6762C50.8683 74.0287 51.0645 74.4975 51.0645 75V84.4144C51.0645 89.8838 44.6522 97.4644 42.1801 99.9225L41.629 100.474V105H22.7581V100.909L17.0968 85.9088V61.875C17.0968 61.3744 17.293 60.9037 17.6497 60.5494C18.363 59.8406 19.6047 59.8406 20.318 60.5494C20.6747 60.9037 20.871 61.3744 20.871 61.875V73.125H24.6452V61.875V58.125C24.6452 57.6244 24.8414 57.1537 25.1981 56.7994C25.9114 56.0906 27.1531 56.0906 27.8664 56.7994C28.2231 57.1537 28.4194 57.6244 28.4194 58.125V73.125H32.1935V58.125V54.375C32.1935 53.8744 32.3898 53.4037 32.7465 53.0494C33.4598 52.3406 34.7015 52.3406 35.4148 53.0494C35.7715 53.4037 35.9677 53.8744 35.9677 54.375V58.125V73.125H39.7419V58.125C39.7419 57.6244 39.9382 57.1537 40.2949 56.7994C41.0082 56.0906 42.2499 56.0906 42.9632 56.7994C43.3199 57.1537 43.5161 57.6244 43.5161 58.125V82.5H47.2903V75C47.2903 74.4975 47.4866 74.0287 47.8414 73.6762ZM103.903 85.9088L98.2419 100.909V105H79.371V100.474L78.818 99.9244C76.3478 97.4644 69.9355 89.8838 69.9355 84.4144V75C69.9355 74.4994 70.1317 74.0287 70.4884 73.6744C71.2036 72.9675 72.4416 72.9675 73.1568 73.6744C73.5134 74.0287 73.7097 74.4994 73.7097 75V82.5H77.4839V58.125C77.4839 57.6244 77.6801 57.1538 78.0387 56.7975C78.7501 56.0906 79.9918 56.0906 80.7033 56.7975C81.0618 57.1538 81.2581 57.6244 81.2581 58.125V73.125H85.0323V58.125V54.375C85.0323 53.8744 85.2285 53.4038 85.5871 53.0475C86.2985 52.3406 87.5402 52.3406 88.2516 53.0475C88.6102 53.4038 88.8064 53.8744 88.8064 54.375V58.125V73.125H92.5806V58.125C92.5806 57.6244 92.7769 57.1538 93.1355 56.7975C93.8469 56.0906 95.0886 56.0906 95.8 56.7975C96.1586 57.1538 96.3548 57.6244 96.3548 58.125V61.875V73.125H100.129V61.875C100.129 61.3744 100.325 60.9038 100.684 60.5475C101.395 59.8406 102.637 59.8406 103.348 60.5475C103.707 60.9038 103.903 61.3744 103.903 61.875V85.9088ZM115.226 63.75H107.677V61.875C107.677 60.375 107.089 58.9613 106.021 57.8981C104.432 56.3175 101.961 55.9162 99.9196 56.6869C99.6667 55.7381 99.1893 54.8606 98.4722 54.1481C96.8832 52.5675 94.413 52.1662 92.3712 52.9369C92.1183 51.9881 91.6409 51.1106 90.9238 50.3981C88.7857 48.2719 85.053 48.2719 82.9149 50.3981C82.1978 51.1106 81.7204 51.9881 81.4675 52.9369C79.4257 52.1662 76.9555 52.5675 75.3665 54.1481C74.2984 55.2113 73.7097 56.625 73.7097 58.125V63.75H47.2903V58.125C47.2903 56.6231 46.7015 55.2094 45.6316 54.1481C44.0426 52.5675 41.5724 52.1662 39.5325 52.9369C39.2796 51.9881 38.8022 51.1106 38.0832 50.3981C35.9451 48.2719 32.2162 48.2719 30.0781 50.3981C29.361 51.1106 28.8817 51.9881 28.6288 52.9369C26.587 52.1662 24.1187 52.5675 22.5297 54.1481C21.8126 54.8606 21.3333 55.7381 21.0804 56.6869C19.0386 55.9162 16.5703 56.3175 14.9813 57.8981C13.9114 58.9594 13.3226 60.3731 13.3226 61.875V63.75H5.77419V22.5H115.226V63.75Z" fill="white"/>
<path d="M83.032 112.5H79.2578V116.25H83.032V112.5Z" fill="white"/>
<path d="M37.741 112.5H33.9668V116.25H37.741V112.5Z" fill="white"/>
<path d="M15.0965 26.25H11.3223V30H15.0965V26.25Z" fill="white"/>
<path d="M22.6453 26.25H18.8711V30H22.6453V26.25Z" fill="white"/>
<path d="M30.1941 26.25H26.4199V30H30.1941V26.25Z" fill="white"/>
<path d="M37.741 26.25H33.9668V30H37.741V26.25Z" fill="white"/>
<path d="M45.2898 26.25H41.5156V30H45.2898V26.25Z" fill="white"/>
<path d="M52.8386 26.25H49.0645V30H52.8386V26.25Z" fill="white"/>
<path d="M60.3875 26.25H56.6133V30H60.3875V26.25Z" fill="white"/>
<path d="M67.9363 26.25H64.1621V30H67.9363V26.25Z" fill="white"/>
<path d="M75.4832 26.25H71.709V30H75.4832V26.25Z" fill="white"/>
<path d="M83.032 26.25H79.2578V30H83.032V26.25Z" fill="white"/>
<path d="M90.5808 26.25H86.8066V30H90.5808V26.25Z" fill="white"/>
<path d="M98.1297 26.25H94.3555V30H98.1297V26.25Z" fill="white"/>
<path d="M105.677 26.25H101.902V30H105.677V26.25Z" fill="white"/>
<path d="M11.323 33.75H7.54883V37.5H11.323V33.75Z" fill="white"/>
<path d="M18.8718 33.75H15.0977V37.5H18.8718V33.75Z" fill="white"/>
<path d="M26.4187 33.75H22.6445V37.5H26.4187V33.75Z" fill="white"/>
<path d="M33.9676 33.75H30.1934V37.5H33.9676V33.75Z" fill="white"/>
<path d="M41.5164 33.75H37.7422V37.5H41.5164V33.75Z" fill="white"/>
<path d="M49.0652 33.75H45.291V37.5H49.0652V33.75Z" fill="white"/>
<path d="M56.6121 33.75H52.8379V37.5H56.6121V33.75Z" fill="white"/>
<path d="M64.1609 33.75H60.3867V37.5H64.1609V33.75Z" fill="white"/>
<path d="M71.7097 33.75H67.9355V37.5H71.7097V33.75Z" fill="white"/>
<path d="M79.2586 33.75H75.4844V37.5H79.2586V33.75Z" fill="white"/>
<path d="M86.8074 33.75H83.0332V37.5H86.8074V33.75Z" fill="white"/>
<path d="M94.3543 33.75H90.5801V37.5H94.3543V33.75Z" fill="white"/>
<path d="M101.903 33.75H98.1289V37.5H101.903V33.75Z" fill="white"/>
<path d="M109.452 33.75H105.678V37.5H109.452V33.75Z" fill="white"/>
<path d="M15.0965 41.25H11.3223V45H15.0965V41.25Z" fill="white"/>
<path d="M22.6453 41.25H18.8711V45H22.6453V41.25Z" fill="white"/>
<path d="M30.1941 41.25H26.4199V45H30.1941V41.25Z" fill="white"/>
<path d="M37.741 41.25H33.9668V45H37.741V41.25Z" fill="white"/>
<path d="M45.2898 41.25H41.5156V45H45.2898V41.25Z" fill="white"/>
<path d="M52.8386 41.25H49.0645V45H52.8386V41.25Z" fill="white"/>
<path d="M60.3875 41.25H56.6133V45H60.3875V41.25Z" fill="white"/>
<path d="M67.9363 41.25H64.1621V45H67.9363V41.25Z" fill="white"/>
<path d="M75.4832 41.25H71.709V45H75.4832V41.25Z" fill="white"/>
<path d="M83.032 41.25H79.2578V45H83.032V41.25Z" fill="white"/>
<path d="M90.5808 41.25H86.8066V45H90.5808V41.25Z" fill="white"/>
<path d="M98.1297 41.25H94.3555V45H98.1297V41.25Z" fill="white"/>
<path d="M105.677 41.25H101.902V45H105.677V41.25Z" fill="white"/>
<path d="M11.323 48.75H7.54883V52.5H11.323V48.75Z" fill="white"/>
<path d="M18.8718 48.75H15.0977V52.5H18.8718V48.75Z" fill="white"/>
<path d="M49.0652 48.75H45.291V52.5H49.0652V48.75Z" fill="white"/>
<path d="M56.6121 48.75H52.8379V52.5H56.6121V48.75Z" fill="white"/>
<path d="M64.1609 48.75H60.3867V52.5H64.1609V48.75Z" fill="white"/>
<path d="M71.7097 48.75H67.9355V52.5H71.7097V48.75Z" fill="white"/>
<path d="M101.903 48.75H98.1289V52.5H101.903V48.75Z" fill="white"/>
<path d="M109.452 48.75H105.678V52.5H109.452V48.75Z" fill="white"/>
<path d="M67.9354 56.25H49.0645V60H67.9354V56.25Z" fill="white"/>
</svg>
