<svg width="120" height="120" viewBox="0 0 120 120" fill="none" xmlns="http://www.w3.org/2000/svg">
<g clip-path="url(#clip0_220_5452)">
<path d="M59.6542 2.00027C30.261 2.00027 6.39736 26.0119 6.39736 55.5874V58.6318C2.64205 60.2879 0 64.0718 0 68.4507V89.8952C0 95.7909 4.78868 100.604 10.6428 100.604H14.9095V100.609C14.9201 100.609 14.9308 100.604 14.9414 100.604C16.4808 102.662 18.7233 104.157 21.3122 104.688V104.897C21.3122 109.608 25.1527 113.473 29.8349 113.473H42.9865C43.8761 115.96 46.2571 117.771 49.0164 117.771H53.2777C56.7827 117.771 59.6591 114.856 59.6591 111.329C59.6591 107.802 56.7774 104.908 53.2777 104.908L49.0164 104.902C46.2572 104.902 43.8708 106.698 42.9812 109.185H29.8349C27.4539 109.185 25.5736 107.293 25.5736 104.897V104.683C30.4209 103.686 34.0856 99.3391 34.0856 94.1722V64.1742C34.0856 58.2731 29.3023 53.46 23.4376 53.46C21.9301 53.46 20.5026 53.7816 19.2028 54.3498C19.8526 32.4073 37.6869 14.8541 59.6591 14.8541C81.626 14.8541 99.4555 32.4018 100.116 54.3443C98.8211 53.7762 97.3935 53.4599 95.8914 53.4599C90.0266 53.4599 85.2433 58.273 85.2433 64.174V94.1721C85.2433 100.073 90.0266 104.902 95.8914 104.902C99.3644 104.902 102.443 103.203 104.388 100.604H104.382C104.393 100.604 104.398 100.609 104.409 100.609H108.675C114.535 100.609 119.318 95.7908 119.318 89.9004V68.4505C119.318 64.0769 116.682 60.3037 112.932 58.6422V55.5871C112.932 26.0116 89.0515 2.00027 59.6542 2.00027ZM59.6542 6.28806C86.7455 6.28806 108.665 28.3321 108.665 55.5874V57.742H104.409H104.403V55.5874C104.403 30.7497 84.3428 10.5813 59.6542 10.5813C34.9696 10.5813 14.9105 30.7497 14.9105 55.5874V57.742H10.6439V55.5874C10.6439 28.328 32.5628 6.28806 59.6542 6.28806ZM59.6595 32.0148C47.9194 32.0148 38.3472 41.6409 38.3472 53.4592C38.3472 65.2721 47.914 74.8872 59.6595 74.8872V74.8819H59.6915C60.8314 74.8658 61.9499 74.6996 63.0686 74.5067L73.7486 79.0143H73.754C74.6009 79.3734 75.581 79.1429 76.1883 78.4408C76.7903 77.744 76.8808 76.7364 76.4121 75.9432L72.7953 69.7848C77.7332 65.7436 80.9718 59.9336 80.9771 53.4541C80.9771 41.6413 71.4051 32.0097 59.6594 32.0097L59.6595 32.0148ZM59.6595 36.3026C69.0985 36.3026 76.7104 43.9616 76.7104 53.4592C76.6998 59.2263 73.8127 64.5968 69.0187 67.7647V67.7593C68.0705 68.3864 67.7776 69.6567 68.3582 70.6429L69.4768 72.5563L64.2193 70.3427C63.8251 70.1766 63.383 70.139 62.9622 70.2301C61.8808 70.4606 60.7622 70.5785 59.6596 70.5946C50.2206 70.5946 42.6087 62.9516 42.6087 53.4544C42.6087 43.9572 50.2205 36.2978 59.6596 36.2978L59.6595 36.3026ZM51.1368 51.3051C50.5722 51.3051 50.0288 51.5302 49.6293 51.9321C49.2297 52.3341 49.0061 52.8808 49.0061 53.449C49.0061 54.6335 49.9595 55.5929 51.1367 55.5929C52.3139 55.5929 53.2674 54.6335 53.2674 53.449C53.2674 52.8809 53.0437 52.3342 52.6442 51.9321C52.2447 51.5301 51.7014 51.3051 51.1368 51.3051ZM59.6595 51.3051C58.4823 51.3051 57.5288 52.2645 57.5288 53.449C57.5288 54.6335 58.4823 55.5928 59.6595 55.5928C60.8367 55.5928 61.7902 54.6335 61.7902 53.449C61.7902 52.8808 61.5665 52.3341 61.167 51.9321C60.7675 51.5301 60.2242 51.3051 59.6595 51.3051ZM68.1822 51.3051C67.6176 51.3051 67.0743 51.5302 66.6747 51.9321C66.2752 52.3341 66.0515 52.8808 66.0515 53.449C66.0515 54.6335 67.005 55.5929 68.1822 55.5929C69.3594 55.5929 70.3129 54.6335 70.3129 53.449C70.3129 52.8809 70.0892 52.3342 69.6897 51.9321C69.2902 51.5301 68.7469 51.3051 68.1822 51.3051ZM23.4386 57.726C27.0181 57.726 29.82 60.572 29.82 64.1684V94.1665C29.82 97.7415 27.0555 100.566 23.5132 100.609V100.614C23.4866 100.609 23.4599 100.609 23.4333 100.609C23.4226 100.609 23.412 100.609 23.396 100.614C19.8377 100.587 17.0573 97.7575 17.0573 94.1719V64.1738C17.0573 60.572 19.8645 57.7314 23.4387 57.7314L23.4386 57.726ZM95.8872 57.726C99.4668 57.726 102.269 60.572 102.269 64.1684V94.1665C102.269 97.7682 99.4615 100.609 95.8872 100.609C92.3077 100.609 89.4846 97.7629 89.4846 94.1665L89.4792 64.1739C89.4792 60.5722 92.3077 57.7315 95.8819 57.7315L95.8872 57.726ZM10.6436 62.0299H13.0034C12.8649 62.7213 12.785 63.4394 12.785 64.1738V94.1719C12.785 94.9061 12.8595 95.6244 13.0034 96.3211H10.6436C7.09064 96.3211 4.26219 93.4751 4.26219 89.9001V68.4502C4.26219 64.8752 7.09064 62.0299 10.6436 62.0299ZM106.311 62.0299H108.671C112.224 62.0299 115.052 64.8759 115.052 68.4509L115.057 89.8953C115.057 93.4703 112.229 96.3163 108.676 96.3163H106.316C106.46 95.6195 106.535 94.9014 106.535 94.1671L106.529 64.1745C106.529 63.4402 106.455 62.7213 106.311 62.0299ZM49.0163 109.19H53.2777C54.4975 109.19 55.3977 110.101 55.3977 111.323C55.3977 112.551 54.4922 113.478 53.2777 113.478L49.0163 113.483C47.7965 113.483 46.875 112.551 46.875 111.329H46.8697V111.323C46.8697 110.101 47.7965 109.19 49.011 109.19H49.0163Z" fill="white"/>
</g>
<defs>
<clipPath id="clip0_220_5452">
<rect width="120" height="120" fill="white"/>
</clipPath>
</defs>
</svg>
