<svg width="72" height="72" viewBox="0 0 72 72" fill="none" xmlns="http://www.w3.org/2000/svg">
<circle cx="36" cy="36" r="36" fill="white"/>
<path d="M52.6663 35.9999C52.6663 26.7999 45.1997 19.3333 35.9997 19.3333C26.7997 19.3333 19.333 26.7999 19.333 35.9999C19.333 45.1999 26.7997 52.6666 35.9997 52.6666M29.333 20.9999H30.9997C27.7497 30.7333 27.7497 41.2666 30.9997 50.9999H29.333M40.9997 20.9999C42.6163 25.8666 43.433 30.9333 43.433 35.9999M20.9997 42.6666V40.9999C25.8663 42.6166 30.933 43.4333 35.9997 43.4333M20.9997 30.9999C30.733 27.7499 41.2663 27.7499 50.9997 30.9999M47.1663 43.0833C47.6663 44.8833 49.0663 46.2832 50.8663 46.7832M48.0164 42.2333L42.1163 48.1334C41.883 48.3667 41.6663 48.8 41.6163 49.1166L41.2997 51.3666C41.183 52.1833 41.7497 52.7499 42.5664 52.6333L44.8163 52.3166C45.133 52.2666 45.583 52.05 45.7997 51.8166L51.6997 45.9167C52.7164 44.9 53.1997 43.7166 51.6997 42.2166C50.2164 40.7333 49.033 41.2166 48.0164 42.2333Z" stroke="#4285F4" stroke-width="1.5" stroke-miterlimit="10" stroke-linecap="round" stroke-linejoin="round"/>
</svg>
