<svg width="24" height="24" viewBox="0 0 24 24" fill="none" xmlns="http://www.w3.org/2000/svg">
<path d="M17.91 18.66C17.98 18.17 18 17.62 18 17V7C18 6.38 17.98 5.83 17.91 5.34M17.91 18.66C17.62 21.29 16.38 22 13 22H11C7.62 22 6.38 21.29 6.09 18.66M17.91 18.66C18.05 18.67 18.18 18.67 18.33 18.67H18.67C21.33 18.67 22 18 22 15.33V8.67C22 6 21.33 5.33 18.67 5.33H18.33C18.18 5.33 18.05 5.33 17.91 5.34M6.09 18.66C6.02 18.17 6 17.62 6 17V7C6 6.38 6.02 5.83 6.09 5.34M6.09 18.66C5.95 18.67 5.82 18.67 5.67 18.67H5.33C2.67 18.67 2 18 2 15.33V8.67C2 6 2.67 5.33 5.33 5.33H5.67C5.82 5.33 5.95 5.33 6.09 5.34M6.09 5.34C6.38 2.71 7.62 2 11 2H13C16.38 2 17.62 2.71 17.91 5.34" stroke="#4285F4" stroke-width="1.5" stroke-linecap="round" stroke-linejoin="round"/>
</svg>
